<?xml version="1.0" encoding="UTF-8"?>
<svg version="1.1" xmlns="http://www.w3.org/2000/svg" width="1358" height="1177">
<path d="M0 0 C0.92151855 0.5671875 1.84303711 1.134375 2.79248047 1.71875 C15.58782568 9.63494493 27.93218767 18.01788146 40 27 C41.42832321 28.05477174 42.85670826 29.10945975 44.28515625 30.1640625 C52.03091936 35.90597351 59.61550459 41.79659824 67 48 C67.7748877 48.64751221 67.7748877 48.64751221 68.56542969 49.30810547 C74.97148673 54.66296087 81.30258882 60.08319236 87.47363281 65.70922852 C89.02610158 67.11692222 90.58616584 68.51635894 92.15869141 69.90161133 C99.14670322 76.07644792 105.75205307 82.59901092 112.33276367 89.20239258 C114.19142108 91.06643244 116.05539614 92.92503512 117.91992188 94.78320312 C123.8269097 100.68654582 129.61356092 106.61130718 135 113 C136.04454005 114.19215404 137.09142391 115.38225852 138.140625 116.5703125 C144.92188567 124.30648319 151.44483663 132.18641886 157.71777344 140.33984375 C158.93972057 141.92195352 160.17652771 143.49255295 161.4140625 145.0625 C214.84927039 213.29247229 251.16098895 293.98418657 279.3125 441.0625 C279.39399292 441.82953247 279.47548584 442.59656494 279.55944824 443.38684082 C281.52145669 462.16114469 282.20926071 480.87862616 282.1875 499.75 C282.18689575 500.72900269 282.1862915 501.70800537 282.18566895 502.7166748 C282.04879962 585.00184339 264.64873881 667.26883415 230 742 C229.28674561 743.54397461 229.28674561 743.54397461 228.55908203 745.11914062 C203.93038294 798.14531401 171.63383577 847.25465804 132.2590332 890.50561523 C130.86427247 892.04568552 129.47763457 893.59321174 128.10449219 895.15258789 C121.92730794 902.14236062 115.40303 908.75001916 108.79760742 915.33276367 C106.93356756 917.19142108 105.07496488 919.05539614 103.21679688 920.91992188 C97.31345418 926.8269097 91.38869282 932.61356092 85 938 C83.80784596 939.04454005 82.61774148 940.09142391 81.4296875 941.140625 C73.74943481 947.87341126 65.93479937 954.36123324 57.83642578 960.58447266 C55.93417313 962.05073972 54.0429781 963.53050909 52.15234375 965.01171875 C35.52274824 977.96979281 18.24898978 990.05206359 0.08691406 1000.76611328 C-1.94202836 1001.9657243 -3.96014335 1003.18182707 -5.9765625 1004.40234375 C-74.30122833 1045.51585244 -150.5205426 1071.98300887 -277 1088 C-277.96550781 1088.05639648 -278.93101562 1088.11279297 -279.92578125 1088.17089844 C-373.69048791 1093.41799626 -468.43455886 1077.37338378 -586 1025 C-587.07862305 1024.46536133 -588.15724609 1023.93072266 -589.26855469 1023.37988281 C-613.97524564 1011.06653934 -637.50185445 997.00234276 -660 981 C-661.13937012 980.1963501 -661.13937012 980.1963501 -662.30175781 979.37646484 C-672.24706847 972.35391725 -681.91635332 965.06230005 -691.34082031 957.35498047 C-692.89590876 956.08500682 -694.45938668 954.82532571 -696.0234375 953.56640625 C-701.38856321 949.23072343 -706.57970333 944.7498117 -711.6796875 940.10546875 C-713.70154184 938.27082315 -715.74678522 936.47231214 -717.8125 934.6875 C-726.79032959 926.83637014 -735.42732839 918.66728761 -743.875 910.25 C-744.57616943 909.55342285 -745.27733887 908.8568457 -745.99975586 908.13916016 C-749.95721081 904.16995085 -753.73168368 900.09735297 -757.39208984 895.85302734 C-759.65977493 893.23964595 -762.0166203 890.71939412 -764.375 888.1875 C-768.61186417 883.59575319 -772.65405883 878.89045886 -776.5703125 874.01953125 C-778.36164261 871.7933284 -780.16738303 869.58511884 -781.9921875 867.38671875 C-807.24536875 836.86237294 -828.54865978 802.99954614 -847 768 C-847.48436523 767.08331543 -847.96873047 766.16663086 -848.46777344 765.22216797 C-886.5796772 692.52441167 -907.01002621 611.20724051 -911.1875 529.4375 C-911.23047211 528.60872345 -911.27344421 527.7799469 -911.31771851 526.92605591 C-912.24654357 508.58352658 -912.17581182 490.34085032 -911.25 472 C-911.20743073 471.14715424 -911.16486145 470.29430847 -911.1210022 469.4156189 C-907.15230984 392.05339872 -887.35399049 316.86308818 -854 247 C-853.29472168 245.52152588 -853.29472168 245.52152588 -852.57519531 244.01318359 C-828.07736042 193.03546149 -795.0780599 146.68613326 -757 105 C-756.14535156 104.05253906 -755.29070312 103.10507813 -754.41015625 102.12890625 C-748.35902246 95.45847342 -742.10744807 89.00398105 -735.75 82.625 C-735.00564697 81.87605469 -734.26129395 81.12710938 -733.49438477 80.35546875 C-729.39049459 76.26297701 -725.19515913 72.34177981 -720.80419922 68.55908203 C-718.38303957 66.46685936 -716.03781962 64.29621284 -713.6875 62.125 C-709.25503526 58.08720678 -704.72257823 54.22692566 -700.0546875 50.46484375 C-697.8168842 48.65914825 -695.59518101 46.84020688 -693.3828125 45.00390625 C-623.62141247 -12.69996785 -538.32328997 -52.87547465 0 0 Z " fill="#000000" transform="translate(912,88)"/>
<path d="M0 0 C0.92151855 0.5671875 1.84303711 1.134375 2.79248047 1.71875 C15.58782568 9.63494493 27.93218767 18.01788146 40 27 C41.42832321 28.05477174 42.85670826 29.10945975 44.28515625 30.1640625 C52.03091936 35.90597351 59.61550459 41.79659824 67 48 C67.7748877 48.64751221 67.7748877 48.64751221 68.56542969 49.30810547 C74.97148673 54.66296087 81.30258882 60.08319236 87.47363281 65.70922852 C89.02610158 67.11692222 90.58616584 68.51635894 92.15869141 69.90161133 C99.14670322 76.07644792 105.75205307 82.59901092 112.33276367 89.20239258 C114.19142108 91.06643244 116.05539614 92.92503512 117.91992188 94.78320312 C123.8269097 100.68654582 129.61356092 106.61130718 135 113 C136.04454005 114.19215404 137.09142391 115.38225852 138.140625 116.5703125 C144.92188567 124.30648319 151.44483663 132.18641886 157.71777344 140.33984375 C158.93972057 141.92195352 160.17652771 143.49255295 161.4140625 145.0625 C214.84927039 213.29247229 251.16098895 293.98418657 279.3125 441.0625 C279.39399292 441.82953247 279.47548584 442.59656494 279.55944824 443.38684082 C281.52145669 462.16114469 282.20926071 480.87862616 282.1875 499.75 C282.18689575 500.72900269 282.1862915 501.70800537 282.18566895 502.7166748 C282.04879962 585.00184339 264.64873881 667.26883415 230 742 C229.28674561 743.54397461 229.28674561 743.54397461 228.55908203 745.11914062 C203.93038294 798.14531401 171.63383577 847.25465804 132.2590332 890.50561523 C130.86427247 892.04568552 129.47763457 893.59321174 128.10449219 895.15258789 C121.92730794 902.14236062 115.40303 908.75001916 108.79760742 915.33276367 C106.93356756 917.19142108 105.07496488 919.05539614 103.21679688 920.91992188 C97.31345418 926.8269097 91.38869282 932.61356092 85 938 C83.80784596 939.04454005 82.61774148 940.09142391 81.4296875 941.140625 C73.74943481 947.87341126 65.93479937 954.36123324 57.83642578 960.58447266 C55.93417313 962.05073972 54.0429781 963.53050909 52.15234375 965.01171875 C35.52274824 977.96979281 18.24898978 990.05206359 0.08691406 1000.76611328 C-1.94202836 1001.9657243 -3.96014335 1003.18182707 -5.9765625 1004.40234375 C-74.30122833 1045.51585244 -150.5205426 1071.98300887 -277 1088 C-277.96550781 1088.05639648 -278.93101562 1088.11279297 -279.92578125 1088.17089844 C-373.69048791 1093.41799626 -468.43455886 1077.37338378 -586 1025 C-587.07862305 1024.46536133 -588.15724609 1023.93072266 -589.26855469 1023.37988281 C-613.97524564 1011.06653934 -637.50185445 997.00234276 -660 981 C-661.13937012 980.1963501 -661.13937012 980.1963501 -662.30175781 979.37646484 C-672.24706847 972.35391725 -681.91635332 965.06230005 -691.34082031 957.35498047 C-692.89590876 956.08500682 -694.45938668 954.82532571 -696.0234375 953.56640625 C-701.38856321 949.23072343 -706.57970333 944.7498117 -711.6796875 940.10546875 C-713.70154184 938.27082315 -715.74678522 936.47231214 -717.8125 934.6875 C-726.79032959 926.83637014 -735.42732839 918.66728761 -743.875 910.25 C-744.57616943 909.55342285 -745.27733887 908.8568457 -745.99975586 908.13916016 C-749.95721081 904.16995085 -753.73168368 900.09735297 -757.39208984 895.85302734 C-759.65977493 893.23964595 -762.0166203 890.71939412 -764.375 888.1875 C-768.61186417 883.59575319 -772.65405883 878.89045886 -776.5703125 874.01953125 C-778.36164261 871.7933284 -780.16738303 869.58511884 -781.9921875 867.38671875 C-807.24536875 836.86237294 -828.54865978 802.99954614 -847 768 C-847.48436523 767.08331543 -847.96873047 766.16663086 -848.46777344 765.22216797 C-886.5796772 692.52441167 -907.01002621 611.20724051 -911.1875 529.4375 C-911.23047211 528.60872345 -911.27344421 527.7799469 -911.31771851 526.92605591 C-912.24654357 508.58352658 -912.17581182 490.34085032 -911.25 472 C-911.20743073 471.14715424 -911.16486145 470.29430847 -911.1210022 469.4156189 C-907.15230984 392.05339872 -887.35399049 316.86308818 -854 247 C-853.29472168 245.52152588 -853.29472168 245.52152588 -852.57519531 244.01318359 C-828.07736042 193.03546149 -795.0780599 146.68613326 -757 105 C-756.14535156 104.05253906 -755.29070312 103.10507813 -754.41015625 102.12890625 C-748.35902246 95.45847342 -742.10744807 89.00398105 -735.75 82.625 C-735.00564697 81.87605469 -734.26129395 81.12710938 -733.49438477 80.35546875 C-729.39049459 76.26297701 -725.19515913 72.34177981 -720.80419922 68.55908203 C-718.38303957 66.46685936 -716.03781962 64.29621284 -713.6875 62.125 C-709.25503526 58.08720678 -704.72257823 54.22692566 -700.0546875 50.46484375 C-697.8168842 48.65914825 -695.59518101 46.84020688 -693.3828125 45.00390625 C-623.62141247 -12.69996785 -538.32328997 -52.87547465 0 0 Z M-376 -51 C-378.31231525 -50.76768498 -380.62480871 -50.53713502 -382.9375 -50.30859375 C-418.40764999 -46.66928116 -453.68948288 -39.09407462 -487.42578125 -27.52734375 C-490.99037196 -26.31319664 -494.58163812 -25.21406785 -498.1875 -24.12890625 C-505.12121051 -22.00630086 -511.90807564 -19.56970692 -518.6875 -17 C-519.30507172 -16.7662265 -519.92264343 -16.532453 -520.55892944 -16.29159546 C-534.00852227 -11.17793588 -547.04918728 -5.2684509 -560 1 C-560.77085937 1.3722168 -561.54171875 1.74443359 -562.3359375 2.12792969 C-566.23395774 4.02078803 -570.10364331 5.96289599 -573.95507812 7.94873047 C-575.41205301 8.69774358 -576.87202528 9.4409383 -578.33398438 10.18017578 C-596.91700469 19.5771886 -614.88613628 30.12246772 -632 42 C-632.73283203 42.50499023 -633.46566406 43.00998047 -634.22070312 43.53027344 C-648.63134548 53.46806103 -662.54530518 63.79087316 -676 75 C-676.51030762 75.42394043 -677.02061523 75.84788086 -677.54638672 76.28466797 C-684.59491896 82.15022977 -691.4649999 88.16992676 -698.1875 94.40625 C-700.65728336 96.6839391 -703.1635139 98.90798518 -705.6875 101.125 C-710.5068192 105.45143428 -715.10104843 109.9923107 -719.6875 114.5625 C-720.40059326 115.27100098 -721.11368652 115.97950195 -721.84838867 116.70947266 C-725.86887621 120.74164087 -729.71214411 124.87218091 -733.42993164 129.18481445 C-735.52665822 131.60887946 -737.70029144 133.95839629 -739.875 136.3125 C-744.79577302 141.7149752 -749.4270049 147.30237581 -754 153 C-754.92389449 154.13198786 -755.8484029 155.26347487 -756.7734375 156.39453125 C-774.79929005 178.53732552 -790.68494127 202.31230625 -805 227 C-805.41137207 227.70560059 -805.82274414 228.41120117 -806.24658203 229.13818359 C-809.27741694 234.36628091 -812.16981209 239.66084183 -815 245 C-815.54495117 246.02722168 -816.08990234 247.05444336 -816.65136719 248.11279297 C-834.35510131 281.79460894 -848.67062617 317.36854817 -858.24975586 354.2121582 C-859.10506664 357.39041847 -860.03153166 360.54461057 -860.95703125 363.703125 C-863.0885398 371.13523963 -864.83957231 378.62458862 -866.4375 386.1875 C-866.5861853 386.89008942 -866.73487061 387.59267883 -866.88806152 388.31655884 C-874.5762178 424.97240696 -878.27750401 462.18342821 -878.25 499.625 C-878.24940582 500.50389893 -878.24881165 501.38279785 -878.24819946 502.28833008 C-878.19956632 521.01099131 -877.28048242 539.6304586 -875.3125 558.25 C-875.2279657 559.05749695 -875.1434314 559.8649939 -875.05633545 560.69696045 C-873.42326039 576.05536578 -870.91109971 591.12735289 -867.77783203 606.24658203 C-867.0079841 609.96147281 -866.26623698 613.6811885 -865.52734375 617.40234375 C-862.75679656 631.10677338 -859.4058816 644.46982904 -855.05859375 657.75830078 C-854.08484966 660.74016747 -853.13004188 663.72762646 -852.17886353 666.7167511 C-842.76617191 696.21208406 -830.88377184 724.33827775 -817 752 C-816.53851562 752.92022949 -816.07703125 753.84045898 -815.6015625 754.78857422 C-795.99253657 793.5981047 -770.37630513 830.79362234 -740.95703125 862.86328125 C-739.20488515 864.77630304 -737.50299234 866.72015283 -735.8125 868.6875 C-724.36692704 881.79836417 -712.3639474 894.9269228 -699.078125 906.203125 C-696.9191349 908.06992095 -694.82447007 909.99890901 -692.7331543 911.94091797 C-686.68518535 917.55231737 -680.45928597 922.86232945 -674 928 C-673.49307617 928.40653809 -672.98615234 928.81307617 -672.46386719 929.23193359 C-657.509413 941.21836308 -642.10885067 952.61171285 -626 963 C-625.30003906 963.45552246 -624.60007812 963.91104492 -623.87890625 964.38037109 C-610.89533313 972.81455952 -597.56058267 980.53436267 -584 988 C-582.82630859 988.65282959 -582.82630859 988.65282959 -581.62890625 989.31884766 C-543.85136459 1010.25749827 -502.41502633 1026.01180991 -460.55371094 1036.36816406 C-458.23391084 1036.94212608 -455.91722525 1037.52679492 -453.6015625 1038.1171875 C-450.9908517 1038.78145119 -448.37794517 1039.43140478 -445.76171875 1040.07421875 C-443.28089564 1040.684764 -440.80411844 1041.31202448 -438.33203125 1041.95703125 C-412.08023236 1048.67034165 -384.8565356 1051.33137008 -357.93536377 1053.81768799 C-356.24934329 1053.97651177 -354.56470181 1054.14984252 -352.88037109 1054.32568359 C-342.37292959 1055.31595957 -331.81694018 1055.15015538 -321.2734375 1055.13037109 C-317.90359935 1055.1250452 -314.53389642 1055.13032344 -311.1640625 1055.13671875 C-292.53827253 1055.14399749 -274.08983238 1054.35337627 -255.5625 1052.4375 C-254.77283844 1052.35618835 -253.98317688 1052.27487671 -253.16958618 1052.19110107 C-218.18344781 1048.50488762 -182.79719905 1041.89363646 -149.38964844 1030.77416992 C-146.58383754 1029.86517663 -143.76149493 1029.0187655 -140.9375 1028.16796875 C-133.29020292 1025.82262047 -125.76516576 1023.17012841 -118.25 1020.4375 C-117.53312012 1020.17710938 -116.81624023 1019.91671875 -116.07763672 1019.6484375 C-102.44691803 1014.67755359 -89.15821682 1009.1194047 -76 1003 C-74.9697168 1002.52594727 -73.93943359 1002.05189453 -72.87792969 1001.56347656 C-57.46845646 994.45031547 -42.64013535 986.57795656 -28 978 C-27.14599609 977.50532227 -26.29199219 977.01064453 -25.41210938 976.50097656 C1.31756417 961.0035632 26.40619034 942.92274487 50 923 C51.20310729 921.99346842 52.40623163 920.98695721 53.609375 919.98046875 C67.05255298 908.66695925 79.62548874 896.46138749 92.0625 884.0625 C92.5556369 883.57204193 93.0487738 883.08158386 93.55685425 882.57626343 C99.25861886 876.89805737 104.78966967 871.13561456 110 865 C110.97293331 863.88191972 111.94685929 862.7647023 112.921875 861.6484375 C119.41163222 854.15547104 125.65413718 846.51001739 131.71044922 838.66308594 C132.91210643 837.11335308 134.12929504 835.57569777 135.34765625 834.0390625 C179.06778333 778.42180569 212.27255642 711.49813493 230 643 C230.24169922 642.07815918 230.48339844 641.15631836 230.73242188 640.20654297 C235.46154313 621.981001 238.84770702 603.54945985 242 585 C242.16628906 584.05302246 242.33257813 583.10604492 242.50390625 582.13037109 C247.40798524 553.9263943 248.28342084 525.05927676 248.3125 496.5 C248.31599457 495.40381348 248.31948914 494.30762695 248.3230896 493.17822266 C248.35860836 473.14940105 247.06890564 453.2963855 244.33154297 433.45166016 C243.92460379 430.44246777 243.54373493 427.43022694 243.16015625 424.41796875 C241.13177116 408.76668094 238.61475604 393.36447248 235 378 C234.7323584 376.8543457 234.4647168 375.70869141 234.18896484 374.52832031 C219.98409247 314.64487752 195.74552418 256.52720098 162 205 C161.51031738 204.2476709 161.02063477 203.4953418 160.51611328 202.72021484 C149.65836447 186.07023472 138.14199971 170.04581527 125.44433594 154.74853516 C123.39626483 152.26910898 121.39006309 149.75627954 119.375 147.25 C115.3526575 142.33298205 111.10160928 137.6661421 106.7734375 133.01953125 C104.79070011 130.88752881 102.89146343 128.70081363 101.00390625 126.484375 C96.06217374 120.81469141 90.70062358 115.55149525 85.37573242 110.24536133 C83.56639067 108.44137915 81.76245681 106.63211335 79.95898438 104.82226562 C74.14250505 99.00208045 68.30283265 93.29849056 62 88 C60.90508751 87.05081848 59.81130788 86.10032835 58.71875 85.1484375 C31.808758 61.90685938 2.97694711 40.56459709 -28 23 C-28.65597168 22.62536621 -29.31194336 22.25073242 -29.98779297 21.86474609 C-35.29073312 18.84558086 -40.6376034 15.91195283 -46 13 C-46.8343457 12.54254395 -47.66869141 12.08508789 -48.52832031 11.61376953 C-83.85265607 -7.6775297 -121.43513186 -21.68223568 -160 -33 C-160.99467285 -33.29245605 -161.9893457 -33.58491211 -163.01416016 -33.88623047 C-177.19299955 -38.00987922 -191.48690063 -41.29006025 -206 -44 C-207.28100586 -44.24250488 -208.56201172 -44.48500977 -209.88183594 -44.73486328 C-264.6079664 -54.97138801 -320.67620329 -57.10950877 -376 -51 Z " fill="#FD0000" transform="translate(912,88)"/>
<path d="M0 0 C9.21443939 7.35639526 14.3033553 18.10890459 19.11328125 28.60546875 C19.7447095 29.94274713 20.37622249 31.27998551 21.0078125 32.6171875 C24.86645153 40.92248525 28.1529029 49.33790498 31.17578125 57.98046875 C34.80502624 68.32709881 38.85987997 78.44213092 43.11328125 88.54296875 C43.43109558 89.29798676 43.74890991 90.05300476 44.07635498 90.8309021 C44.55942108 91.97844467 44.55942108 91.97844467 45.05224609 93.14916992 C45.71463855 94.7230939 46.37690928 96.29706911 47.0390625 97.87109375 C47.3727887 98.6642952 47.70651489 99.45749664 48.050354 100.2747345 C51.88605509 109.41282629 55.59486607 118.60166082 59.30078125 127.79296875 C60.73524618 131.34783027 62.1702178 134.90248701 63.60546875 138.45703125 C63.96975479 139.35932465 64.33404083 140.26161804 64.70936584 141.19125366 C69.08745978 152.02798491 73.50601286 162.84818299 77.92578125 173.66796875 C78.34314545 174.68982269 78.76050964 175.71167664 79.19052124 176.76449585 C81.31496554 181.96570394 83.43983409 187.16673855 85.56494141 192.36767578 C88.0863133 198.53883622 90.60594558 204.71070576 93.125 210.8828125 C93.53712234 211.89257141 93.94924469 212.90233032 94.37385559 213.94268799 C96.44770453 219.02407051 98.52137478 224.10552594 100.5949707 229.18701172 C104.85822123 239.63382609 109.12414613 250.07953736 113.39453125 260.5234375 C117.57776377 270.75478178 121.75334103 280.98922101 125.921875 291.2265625 C127.30727418 294.62868201 128.69507382 298.0297985 130.0859375 301.4296875 C131.51728869 304.9292692 132.94182121 308.4315355 134.36010742 311.93643188 C135.0732033 313.69417855 135.7932334 315.44910744 136.51367188 317.20385742 C139.60136178 324.86744286 141.99443668 332.6215014 144.11328125 340.60546875 C144.30801025 341.31646729 144.50273926 342.02746582 144.70336914 342.76000977 C146.41422295 350.46241831 146.73637031 361.04259625 142.80078125 368.04296875 C136.308029 376.89393762 127.72604614 386.42035212 116.7421875 389.20703125 C106.25567072 390.7963696 95.77261951 390.13787228 86.92578125 383.91796875 C79.25436643 377.48948351 74.61158598 370.52146783 70.55078125 361.41796875 C70.04973877 360.31517578 69.54869629 359.21238281 69.0324707 358.07617188 C62.95218596 344.40975927 57.79528622 330.37087101 52.62608337 316.34062195 C50.26265777 309.9462164 47.78762178 303.5973696 45.2618866 297.26538086 C43.11328125 291.82139095 43.11328125 291.82139095 43.11328125 289.60546875 C-9.35671875 289.60546875 -61.82671875 289.60546875 -115.88671875 289.60546875 C-116.21671875 291.58546875 -116.54671875 293.56546875 -116.88671875 295.60546875 C-117.35415739 297.17304923 -117.86451725 298.7285046 -118.41796875 300.26782227 C-118.72919678 301.1405629 -119.0404248 302.01330353 -119.36108398 302.91249084 C-119.86877319 304.3093235 -119.86877319 304.3093235 -120.38671875 305.734375 C-120.7412915 306.71929428 -121.09586426 307.70421356 -121.46118164 308.71897888 C-122.21518999 310.80862239 -122.97184639 312.89731203 -123.73095703 314.98510742 C-124.86289097 318.10234924 -125.98282762 321.22370418 -127.1015625 324.34570312 C-147.16448087 379.96665903 -147.16448087 379.96665903 -163.51953125 387.66015625 C-171.60245906 390.88799211 -182.08175041 391.05257974 -190.26171875 388.04296875 C-198.06970456 384.35946714 -204.93370028 378.68120941 -209.88671875 371.60546875 C-210.30050781 371.02023437 -210.71429688 370.435 -211.140625 369.83203125 C-214.13994321 364.54403469 -214.26939871 359.22986226 -214.32421875 353.29296875 C-214.33437012 352.52307617 -214.34452148 351.75318359 -214.35498047 350.95996094 C-214.19485008 340.13875541 -210.54770189 330.08918999 -206.5546875 320.15234375 C-206.13077225 319.07946106 -205.70685699 318.00657837 -205.27009583 316.90118408 C-203.87834216 313.38317812 -202.47623327 309.86939656 -201.07421875 306.35546875 C-200.08448865 303.85838446 -199.09541943 301.36105034 -198.10742188 298.86328125 C-196.31431013 294.33193508 -194.5188649 289.80152827 -192.72029305 285.2723465 C-188.19699751 273.8806816 -183.71847418 262.47152031 -179.24258423 251.06115723 C-176.95931579 245.24180084 -174.67284437 239.42370314 -172.38671875 233.60546875 C-171.47003698 231.27214135 -170.55337031 228.93880802 -169.63671875 226.60546875 C-142.13671875 156.60546875 -142.13671875 156.60546875 -140.76190186 153.10594177 C-139.84461854 150.77103417 -138.92734153 148.43612409 -138.0100708 146.10121155 C-135.72789029 140.29194429 -133.44560269 134.48271914 -131.16308594 128.67358398 C-126.92513695 117.88743562 -122.68816701 107.10090556 -118.45495605 96.31289673 C-116.48851028 91.30159241 -114.52134328 86.29057125 -112.55419922 81.27954102 C-111.63040211 78.92581544 -110.70688566 76.57197968 -109.78369141 74.21801758 C-107.24713217 67.75040376 -104.70459161 61.28520285 -102.15420532 54.82302856 C-101.28533072 52.61735942 -100.41906839 50.41065996 -99.55502319 48.20309448 C-98.23245291 44.82454409 -96.9020725 41.44915556 -95.5703125 38.07421875 C-95.17632263 37.06235001 -94.78233276 36.05048126 -94.37640381 35.00794983 C-86.528874 15.2106405 -75.93609585 -0.14991607 -56.23046875 -9.39453125 C-37.68576622 -17.30693766 -15.59992938 -11.60569987 0 0 Z " fill="#FE0000" transform="translate(419.88671875,391.39453125)"/>
<path d="M0 0 C8.85552137 6.29533572 14.43351974 13.45988233 17 24 C17.27566968 26.63966722 17.48427667 29.28721063 17.625 31.9375 C17.66367187 32.62134766 17.70234375 33.30519531 17.7421875 34.00976562 C17.83522412 35.67279513 17.91863787 37.33635847 18 39 C18.38929688 38.53851562 18.77859375 38.07703125 19.1796875 37.6015625 C38.50220768 15.07346294 63.67735732 -1.67239441 94 -4 C121.35911885 -5.57571478 146.61394413 -0.23449614 167.5703125 18.26953125 C174.13730888 24.48508287 179.10615678 31.45828025 184 39 C186.74112006 36.30034226 189.39559809 33.61874557 191.8125 30.625 C205.26067168 14.87336315 224.27092802 4.39551968 244 -1 C245.216875 -1.391875 246.43375 -1.78375 247.6875 -2.1875 C273.75544632 -8.58152457 302.9307756 -2.85557136 325.67578125 10.734375 C343.12094869 22.17750734 354.91659683 40.2289245 359.18577576 60.54598999 C363.02536652 80.73431532 362.34366709 101.50535036 362.36744571 121.96324492 C362.37112605 124.73526636 362.37738374 127.50727066 362.3844471 130.27928543 C362.40879811 139.98356142 362.42196632 149.68778488 362.42553711 159.39208984 C362.42918195 168.3883828 362.45918211 177.38433673 362.50094169 186.38052595 C362.53575008 194.15607801 362.55108721 201.93151789 362.55178314 209.70714724 C362.55257104 214.3291126 362.56108691 218.95072917 362.58978081 223.57261276 C362.61615091 227.91503857 362.61806252 232.25683034 362.60212517 236.59930038 C362.60032683 238.17978818 362.60685287 239.76031423 362.62294388 241.34072113 C362.74930581 254.57081319 361.01222897 267.68686533 351.94140625 278.0703125 C342.67066939 287.28508917 334.1063614 290.54959745 321.04711914 290.56494141 C314.10360235 290.29374238 308.78341238 287.79195434 303 284 C302.38640625 283.61714844 301.7728125 283.23429687 301.140625 282.83984375 C294.10545937 277.78105197 289.8693703 268.25750623 288 260 C286.78949932 252.50005825 286.84057687 245.03723197 286.82641602 237.45605469 C286.82010053 235.98980517 286.81333365 234.52355754 286.80615234 233.05731201 C286.79154191 229.9101069 286.77979259 226.76290888 286.77020454 223.61568451 C286.75464633 218.61918263 286.73069269 213.62274209 286.70530701 208.62628174 C286.63440028 194.42114161 286.57461785 180.21596574 286.52319336 166.01074219 C286.49468741 158.15692545 286.45919509 150.30316928 286.41653961 142.4494164 C286.39437852 138.30622887 286.3757693 134.16309631 286.36609077 130.01985931 C286.3980089 109.17771739 286.3980089 109.17771739 285.22631836 88.37988281 C285.166055 87.63467754 285.10579165 86.88947227 285.04370213 86.12168503 C283.92799386 75.90767167 278.55096205 66.83182281 271 60 C261.91349804 52.81532403 251.25039162 51.82950471 240 53 C226.17025095 56.09153137 213.19007294 64.35064967 205 76 C192.05008801 97.02143248 193.71221314 123.8818315 193.75617027 147.65757179 C193.76392657 152.05299867 193.75296646 156.44826921 193.7389679 160.84367371 C193.70162791 173.32539675 193.6830426 185.80704161 193.69458008 198.28881836 C193.70082819 205.22019711 193.68907127 212.15131547 193.65813476 219.08263034 C193.64267836 222.72989062 193.63626851 226.37663758 193.65271568 230.0239048 C193.80291499 265.63705195 193.80291499 265.63705195 182.94140625 278.0703125 C173.67066939 287.28508917 165.1063614 290.54959745 152.04711914 290.56494141 C145.10360235 290.29374238 139.78341238 287.79195434 134 284 C133.38640625 283.61714844 132.7728125 283.23429687 132.140625 282.83984375 C123.07992439 276.32454615 119.90669111 264.42625209 118 254 C117.4954463 248.88195389 117.45309705 243.79875441 117.48583984 238.66137695 C117.48036058 237.19408946 117.47310854 235.72680771 117.46424866 234.25953674 C117.44905804 231.13144958 117.44604816 228.00368964 117.45301437 224.87557411 C117.46393433 219.9078234 117.4462608 214.94040534 117.42520142 209.97270203 C117.39507661 202.09925117 117.38326068 194.22590087 117.37962496 186.35239714 C117.37296639 172.28978719 117.34348556 158.22724917 117.2945286 144.16472405 C117.27824186 139.24800237 117.27285379 134.33142551 117.27585423 129.41467994 C118.96535009 93.10043304 118.96535009 93.10043304 105.28125 61.09765625 C96.13810837 52.69034965 84.91523015 52.43137164 73.09277344 52.86376953 C60.92398017 53.65590516 48.32648888 57.70960723 40 67 C21.60132223 91.51646471 22.54055257 127.97187062 22.65854692 156.98919272 C22.66801233 160.46009506 22.65611935 163.93092009 22.64559937 167.40180969 C22.61593512 178.39482997 22.61696659 189.38779065 22.63585222 200.38083059 C22.6482487 207.65729904 22.64617212 214.93345062 22.61746442 222.20988303 C22.60486353 225.64134983 22.60163898 229.07222644 22.62215042 232.50366783 C22.79303793 266.49679997 22.79303793 266.49679997 12.71875 278.29296875 C3.54707246 287.40211212 -5.067649 290.5498019 -17.95288086 290.56494141 C-27.49538422 290.19223149 -35.14356596 285.41229256 -42 279 C-44.01171875 275.8359375 -44.01171875 275.8359375 -45.6875 272.375 C-46.24824219 271.24835938 -46.80898438 270.12171875 -47.38671875 268.9609375 C-47.94338614 267.64848454 -48.48033427 266.32753866 -49 265 C-49.26386537 264.33195249 -49.52773073 263.66390497 -49.79959202 262.97561359 C-53.09202161 252.97661064 -52.42825709 242.53308977 -52.40405273 232.13549805 C-52.4097615 229.92016252 -52.41672771 227.70482994 -52.42485046 225.48950195 C-52.44274235 219.49556016 -52.44162075 213.50176508 -52.43590808 207.50780463 C-52.43281004 202.49316926 -52.43891563 197.47856182 -52.44494683 192.46393043 C-52.45977886 179.95164296 -52.45618967 167.43942602 -52.44408352 154.92714361 C-52.43415728 144.08963697 -52.44708578 133.25230122 -52.47101771 122.41482093 C-52.49546997 111.25665223 -52.50460275 100.09854529 -52.49836498 88.94034606 C-52.49500337 82.68800285 -52.49735744 76.43580072 -52.51461601 70.1834774 C-52.53014679 64.3006752 -52.52606154 58.41819768 -52.50731087 52.53540802 C-52.50364175 50.38529075 -52.50668408 48.2351491 -52.51719666 46.0850544 C-52.64775165 17.15852136 -52.64775165 17.15852136 -43.69140625 6.67578125 C-31.68189421 -5.22278842 -15.31798687 -7.80547691 0 0 Z " fill="#FE0000" transform="translate(665,491)"/>
<path d="M0 0 C2.8522718 1.4261359 2.94837746 3.06336539 4.02099609 6.03979492 C4.61579521 7.67327377 4.61579521 7.67327377 5.22261047 9.3397522 C5.65188339 10.54118866 6.08115631 11.74262512 6.5234375 12.98046875 C6.98074605 14.24376423 7.43874359 15.50681048 7.89738464 16.7696228 C8.88141937 19.48293209 9.86110365 22.19775749 10.83743286 24.91384888 C12.38291854 29.21272452 13.93818512 33.50801461 15.49584961 37.80249023 C15.75669562 38.52169805 16.01754164 39.24090586 16.28629208 39.98190784 C16.81623987 41.44303005 17.34621935 42.90414077 17.87623024 44.3652401 C18.68041167 46.58308269 19.48368947 48.80125088 20.28678894 51.01948547 C24.90573789 63.77233965 29.59643219 76.49784318 34.31854248 89.21289062 C35.55556004 92.54381275 36.7909489 95.87533466 38.02587891 99.20703125 C41.44448316 108.42818465 44.86774292 117.64757642 48.3011322 126.86323547 C49.6435531 130.46914234 50.98226143 134.07641933 52.32003784 137.68405151 C52.9327372 139.33343182 53.54721646 140.9821522 54.16360474 142.63015747 C54.99364664 144.84950002 55.81784062 147.07092749 56.640625 149.29296875 C57.09985352 150.5255542 57.55908203 151.75813965 58.03222656 153.02807617 C59 156 59 156 59 159 C21.05 159 -16.9 159 -56 159 C-55.33829299 155.02975797 -54.8125793 152.07836431 -53.49145508 148.4375 C-53.18128952 147.57455826 -52.87112396 146.71161652 -52.55155945 145.82252502 C-52.21099014 144.89109177 -51.87042084 143.95965851 -51.51953125 143 C-51.15910233 142.00085068 -50.7986734 141.00170135 -50.42732239 139.97227478 C-49.64110445 137.79426938 -48.85259255 135.61709102 -48.06207275 133.44064331 C-45.89956901 127.48628489 -43.75387184 121.52586351 -41.60546875 115.56640625 C-41.14711299 114.2964259 -40.6887388 113.02645221 -40.23034668 111.75648499 C-35.44688896 98.49717485 -30.73974107 85.21099602 -26.03607178 71.92321777 C-19.46144755 53.35058811 -12.876765 34.78171808 -6.1875 16.25 C-5.78340912 15.12886307 -5.78340912 15.12886307 -5.37115479 13.9850769 C-4.63828761 11.95303611 -3.90359623 9.92166791 -3.16796875 7.890625 C-2.76860107 6.78750977 -2.3692334 5.68439453 -1.95776367 4.54785156 C-1 2 -1 2 0 0 Z " fill="#010000" transform="translate(382,463)"/>
</svg>
