<?xml version="1.0" encoding="UTF-8"?>
<svg version="1.1" xmlns="http://www.w3.org/2000/svg" width="191" height="187">
<path d="M0 0 C0.99 0.33 1.98 0.66 3 1 C3.495 5.95 3.495 5.95 4 11 C5.37414062 10.89558594 6.74828125 10.79117188 8.1640625 10.68359375 C22.32398549 9.91762727 22.32398549 9.91762727 26.55859375 12.65234375 C28.19058029 15.06429269 29.12093139 17.22660043 30 20 C30.32613281 20.804375 30.65226563 21.60875 30.98828125 22.4375 C34.40023959 31.81662777 34.09052814 41.88654392 30 51 C27.95166991 54.23252092 25.71145169 57.28854831 23 60 C24.65 60.33 26.3 60.66 28 61 C28 63.31 28 65.62 28 68 C39.15779794 68.39566659 45.87291227 66.13721095 55.05078125 59.93359375 C58 58 58 58 60 58 C60 73.84 60 89.68 60 106 C50 101 50 101 46.25 98.25 C40.77613504 94.64222537 34.35013072 95.18317685 28 95 C28 103.58 28 112.16 28 121 C-0.71 121 -29.42 121 -59 121 C-59.33 124.3 -59.66 127.6 -60 131 C-65.4350624 133.52222609 -71.27891278 134.30242603 -77.13867188 135.32421875 C-82.19030112 136.29888604 -84.40494283 137.22593583 -88 141 C-90.58818718 141.75973074 -92.92614173 142.31781012 -95.5625 142.75 C-96.23474609 142.87503906 -96.90699219 143.00007812 -97.59960938 143.12890625 C-100.44106143 143.64245568 -103.1076163 144 -106 144 C-107.20272819 141.59454362 -107.10071472 140.05003047 -107.0625 137.375 C-107.05347656 136.55773437 -107.04445313 135.74046875 -107.03515625 134.8984375 C-107.01775391 133.95871094 -107.01775391 133.95871094 -107 133 C-98.92371153 131.07084607 -91.94772918 129.63930843 -83.62890625 130.8046875 C-79.75028386 131.09284667 -76.2418573 130.28757054 -72.4609375 129.48046875 C-69.60595364 128.92306714 -66.901497 128.84316232 -64 129 C-63.67 126.36 -63.34 123.72 -63 121 C-65.97 121 -68.94 121 -72 121 C-72 109.45 -72 97.9 -72 86 C-74.97 86.495 -74.97 86.495 -78 87 C-77.14285714 78.42857143 -77.14285714 78.42857143 -75 75 C-74.01 75 -73.02 75 -72 75 C-72.18433594 74.29488281 -72.36867187 73.58976562 -72.55859375 72.86328125 C-73.05122973 69.66768679 -72.70907101 67.34428787 -72.0625 64.1875 C-71.77052734 62.72376953 -71.77052734 62.72376953 -71.47265625 61.23046875 C-71.23869141 60.12638672 -71.23869141 60.12638672 -71 59 C-70.34 59 -69.68 59 -69 59 C-69 58.34 -69 57.68 -69 57 C-68.26394531 56.91363281 -67.52789062 56.82726562 -66.76953125 56.73828125 C-60.4863457 55.83356893 -56.86948017 55.1593069 -53 50 C-51.69299377 47.38598755 -52.14281055 45.71486814 -52.375 42.8125 C-52.43298706 39.4135659 -52.42240533 37.61460519 -50.48046875 34.7890625 C-48.71971369 33.08927044 -46.8885023 31.55337239 -45 30 C-44.67 29.34 -44.34 28.68 -44 28 C-41.36 28.33 -38.72 28.66 -36 29 C-35.89429687 28.40574219 -35.78859375 27.81148437 -35.6796875 27.19921875 C-34.90504879 24.69277281 -33.95767712 23.65885381 -32.125 21.8125 C-29.04836241 18.42819866 -27.88415282 15.33110717 -26.8359375 10.91796875 C-26 9 -26 9 -22 7 C-20.35 9.64 -18.7 12.28 -17 15 C-15.20767663 14.69128878 -13.41615679 14.37790936 -11.625 14.0625 C-10.62726563 13.88847656 -9.62953125 13.71445312 -8.6015625 13.53515625 C-6.03090344 13.12287938 -6.03090344 13.12287938 -4 12 C-3.38438582 9.45123766 -3.38438582 9.45123766 -3 6.5 C-2.5625 3.46875 -2.5625 3.46875 -2 1 C-1.34 0.67 -0.68 0.34 0 0 Z M-13.87109375 21.65625 C-18.14303971 26.49164207 -19.31487487 30.30972078 -19.2109375 36.72265625 C-18.75631992 41.63084233 -16.56756125 44.69721516 -12.9375 47.8125 C-7.74602946 51.6784887 -3.36230412 51.64792913 3 51 C7.93205943 48.57880719 11.5325628 45.29631214 13.79296875 40.21875 C15.3847664 35.35653174 14.895247 31.78135893 13.05859375 27.046875 C10.91864843 22.90912095 7.80152218 20.53434812 4 18 C-2.52492816 16.30351868 -8.72799116 17.10369155 -13.87109375 21.65625 Z M-36 53 C-39.01700197 56.59666734 -39.01700197 56.59666734 -40 61 C-35.38 61 -30.76 61 -26 61 C-26.9075 59.68 -27.815 58.36 -28.75 57 C-29.51570313 55.88625 -29.51570313 55.88625 -30.296875 54.75 C-30.85890625 54.1725 -31.4209375 53.595 -32 53 C-33.32 53 -34.64 53 -36 53 Z M17 109 C16.34 110.32 15.68 111.64 15 113 C17.475 113.495 17.475 113.495 20 114 C19.67 112.35 19.34 110.7 19 109 C18.34 109 17.68 109 17 109 Z " fill="#C40102" transform="translate(130,42)"/>
<path d="M0 0 C8.49018663 7.56734025 13.37774303 16.69303491 15.28515625 27.9921875 C15.49712984 32.7293364 14.18191691 36.48694679 11.875 40.5625 C8.5795751 43.96337849 5.59101343 46.52817973 0.75 46.625 C-0.19875 46.604375 -1.1475 46.58375 -2.125 46.5625 C-2.26228516 47.43648437 -2.26228516 47.43648437 -2.40234375 48.328125 C-3.29701069 51.09433847 -4.58664769 52.32623964 -6.6875 54.3125 C-7.32816406 54.92609375 -7.96882813 55.5396875 -8.62890625 56.171875 C-9.12261719 56.63078125 -9.61632812 57.0896875 -10.125 57.5625 C-12.83724618 55.94981308 -15.49852812 54.31348126 -18.125 52.5625 C-17.815625 54.2021875 -17.815625 54.2021875 -17.5 55.875 C-17.125 59.5625 -17.125 59.5625 -19.125 62.5625 C-21.765 62.2325 -24.405 61.9025 -27.125 61.5625 C-25.145 63.5425 -23.165 65.5225 -21.125 67.5625 C-22.49187222 71.54921063 -24.27695093 74.44744633 -27.125 77.5625 C-27.785 77.5625 -28.445 77.5625 -29.125 77.5625 C-29.01865234 79.26599609 -29.01865234 79.26599609 -28.91015625 81.00390625 C-28.91126314 86.03473005 -30.5660713 89.94845511 -32.5625 94.5 C-34.95888669 99.9998261 -36.53570394 104.79431044 -36.93383789 110.81469727 C-37.125 112.5625 -37.125 112.5625 -38.125 113.5625 C-39.64428038 113.63429964 -41.16667482 113.64642007 -42.6875 113.625 C-43.92693359 113.61146484 -43.92693359 113.61146484 -45.19140625 113.59765625 C-46.14853516 113.58025391 -46.14853516 113.58025391 -47.125 113.5625 C-46.795 114.5525 -46.465 115.5425 -46.125 116.5625 C-46.08545766 118.89549825 -46.08098268 121.22958189 -46.125 123.5625 C-45.155625 123.706875 -44.18625 123.85125 -43.1875 124 C-40.125 124.5625 -40.125 124.5625 -39.125 125.5625 C-38.97411926 130.08892225 -39.02075128 134.14550512 -40.125 138.5625 C-46.30617934 138.02646277 -51.34706824 136.05191216 -57 133.5625 C-58.36753418 132.96671143 -58.36753418 132.96671143 -59.76269531 132.35888672 C-65.89282901 129.64776846 -71.926009 126.7758795 -77.875 123.6875 C-78.5954248 123.31882812 -79.31584961 122.95015625 -80.05810547 122.5703125 C-85.00299882 119.92850353 -85.00299882 119.92850353 -86.125 116.5625 C-86.3577039 112.29626192 -86.50499343 109.17821416 -84.125 105.5625 C-78.46150342 102.42633212 -71.64991731 101.95012218 -65.3125 101.4375 C-63.65993271 101.29157229 -62.00757712 101.14322227 -60.35546875 100.9921875 C-59.63770264 100.93272949 -58.91993652 100.87327148 -58.18041992 100.81201172 C-56.09791266 100.55921181 -54.14714033 100.11376009 -52.125 99.5625 C-52.8770874 99.17392822 -53.6291748 98.78535645 -54.40405273 98.38500977 C-57.1872267 96.94592724 -59.96951974 95.50515987 -62.7512207 94.06323242 C-63.95659762 93.438854 -65.16232592 92.81515346 -66.3684082 92.19213867 C-68.09938758 91.2978349 -69.82901197 90.40090998 -71.55859375 89.50390625 C-72.60072021 88.96451416 -73.64284668 88.42512207 -74.71655273 87.86938477 C-77.125 86.5625 -77.125 86.5625 -78.125 85.5625 C-77.69385252 76.79583449 -75.89957212 65.72120192 -69.125 59.5625 C-64.95016541 57.08016592 -61.76939677 57.42177097 -57.125 58.5625 C-53.46304042 60.63530731 -51.46475723 62.05286416 -49.125 65.5625 C-49.125 66.5525 -49.125 67.5425 -49.125 68.5625 C-45.66 67.5725 -45.66 67.5725 -42.125 66.5625 C-42.73609619 65.98282471 -43.34719238 65.40314941 -43.97680664 64.8059082 C-46.23820569 62.64679975 -48.48576113 60.47445083 -50.72485352 58.29223633 C-51.69641653 57.35083702 -52.67329762 56.41489399 -53.65551758 55.48461914 C-55.06678382 54.14616481 -56.45755315 52.78620243 -57.84765625 51.42578125 C-59.11234741 50.20822144 -59.11234741 50.20822144 -60.40258789 48.96606445 C-62.125 46.5625 -62.125 46.5625 -62.06030273 43.93823242 C-60.60128094 40.23221805 -58.43044554 38.6829745 -55.125 36.5625 C-50.61922955 36.89463607 -46.87093849 38.33925999 -42.75 40.125 C-41.69039062 40.58003906 -40.63078125 41.03507812 -39.5390625 41.50390625 C-38.74242187 41.85324219 -37.94578125 42.20257813 -37.125 42.5625 C-37.6303125 41.53769531 -38.135625 40.51289062 -38.65625 39.45703125 C-39.31300983 38.09660017 -39.96923163 36.73590927 -40.625 35.375 C-40.95886719 34.70146484 -41.29273438 34.02792969 -41.63671875 33.33398438 C-44.80083975 26.71515982 -44.80083975 26.71515982 -44.125 22.5625 C-42 20.1875 -42 20.1875 -39.125 18.5625 C-33.91809775 18.78575584 -31.30321467 20.63030451 -27.4375 24 C-24.70723281 26.35263687 -22.12554166 28.56213889 -19.125 30.5625 C-19.62 29.53125 -20.115 28.5 -20.625 27.4375 C-23.07945083 20.84923726 -23.42147983 12.97199636 -21.43359375 6.2109375 C-19.9362637 3.26639724 -18.09631277 1.54181851 -15.4375 -0.375 C-9.91804011 -2.1453928 -5.32820192 -2.45097288 0 0 Z M-10.125 9.5625 C-12.10018447 16.12206325 -8.88338485 21.63088086 -6.125 27.5625 C-4.59574141 30.09752435 -2.99855283 32.26070653 -1.125 34.5625 C0.195 33.9025 1.515 33.2425 2.875 32.5625 C2.37191799 27.19399471 0.96140159 23.0356464 -1.5625 18.25 C-1.87509766 17.63060547 -2.18769531 17.01121094 -2.50976562 16.37304688 C-3.85042637 13.76258484 -5.03783429 11.64966571 -7.125 9.5625 C-8.115 9.5625 -9.105 9.5625 -10.125 9.5625 Z M-62.125 72.5625 C-64.49480013 75.51627498 -64.49480013 75.51627498 -64.125 79.5625 C-61.65 80.5525 -61.65 80.5525 -59.125 81.5625 C-59.125 78.9225 -59.125 76.2825 -59.125 73.5625 C-60.115 73.2325 -61.105 72.9025 -62.125 72.5625 Z M-47.125 80.5625 C-47.785 82.5425 -48.445 84.5225 -49.125 86.5625 C-46.30990007 88.8398501 -46.30990007 88.8398501 -43.125 88.5625 C-43.455 86.2525 -43.785 83.9425 -44.125 81.5625 C-45.115 81.2325 -46.105 80.9025 -47.125 80.5625 Z M-47.125 105.5625 C-47.125 106.2225 -47.125 106.8825 -47.125 107.5625 C-46.135 107.2325 -45.145 106.9025 -44.125 106.5625 C-45.115 106.2325 -46.105 105.9025 -47.125 105.5625 Z M-66.125 114.5625 C-63.5595406 117.1279594 -61.64813332 117.10296087 -58.125 117.5625 C-58.125 116.5725 -58.125 115.5825 -58.125 114.5625 C-60.765 114.5625 -63.405 114.5625 -66.125 114.5625 Z " fill="#C30B0C" transform="translate(87.125,21.4375)"/>
<path d="M0 0 C1.81242052 -0.02687279 3.62495233 -0.04633715 5.4375 -0.0625 C6.44683594 -0.07410156 7.45617187 -0.08570313 8.49609375 -0.09765625 C11 0 11 0 12 1 C12.08651611 2.41570123 12.10704904 3.835595 12.09765625 5.25390625 C12.09515869 6.0229126 12.09266113 6.79191895 12.09008789 7.58422852 C12.08098389 8.56705811 12.07187988 9.5498877 12.0625 10.5625 C12.0315625 15.2340625 12.0315625 15.2340625 12 20 C13.98 13.73 15.96 7.46 18 1 C21.47985727 1.45350008 24.95881569 1.91265729 28.4375 2.375 C29.41138672 2.50132813 30.38527344 2.62765625 31.38867188 2.7578125 C37.34950292 3.55524809 43.1487732 4.60829145 49 6 C48.125 14.75 48.125 14.75 47 17 C40.4 17 33.8 17 27 17 C26.67 17.99 26.34 18.98 26 20 C30.62 20.66 35.24 21.32 40 22 C41 26 41 26 39 33 C33.72 33 28.44 33 23 33 C22.67 34.32 22.34 35.64 22 37 C22.71285156 37.04898438 23.42570312 37.09796875 24.16015625 37.1484375 C29.70508491 37.58128523 34.72086449 38.24028816 40 40 C40.18085487 44.61179928 39.84670417 47.79038695 38 52 C37.39752441 51.90912109 36.79504883 51.81824219 36.17431641 51.72460938 C23.02400989 49.7778948 10.29427552 48.55187835 -3 49 C-3.30133395 7.05894983 -3.30133395 7.05894983 0 0 Z M1 3 C2 5 2 5 2 5 Z M10 24 C11 28 11 28 11 28 Z " fill="#C20E0F" transform="translate(138,3)"/>
<path d="M0 0 C0 15.84 0 31.68 0 48 C-10 43 -10 43 -13.75 40.25 C-19.22386496 36.64222537 -25.64986928 37.18317685 -32 37 C-32 45.58 -32 54.16 -32 63 C-60.71 63 -89.42 63 -119 63 C-119 62.67 -119 62.34 -119 62 C-90.62 62 -62.24 62 -33 62 C-33 42.86 -33 23.72 -33 4 C-35.31 4 -37.62 4 -40 4 C-39.34 3.34 -38.68 2.68 -38 2 C-34.875 2.375 -34.875 2.375 -32 3 C-32 5.31 -32 7.62 -32 10 C-20.84220206 10.39566659 -14.12708773 8.13721095 -4.94921875 1.93359375 C-2 0 -2 0 0 0 Z " fill="#C51516" transform="translate(190,100)"/>
<path d="M0 0 C1.85772162 0.08984301 3.71247985 0.24611861 5.5625 0.4375 C6.522771 0.53683838 7.48304199 0.63617676 8.47241211 0.73852539 C9.30651611 0.82481201 10.14062012 0.91109863 11 1 C11.30013636 10.95591214 10.37278132 20.78328688 9.5 30.6875 C9.35504168 32.37170809 9.21050717 34.05595271 9.06640625 35.74023438 C8.71581908 39.82726025 8.35951097 43.91374983 8 48 C6.73118545 48.50123449 5.45985503 48.99610338 4.1875 49.48828125 C3.47980469 49.76454346 2.77210937 50.04080566 2.04296875 50.32543945 C-0.38024602 51.12555207 -2.46556586 51.2376032 -5 51 C-9.86057731 41.52953418 -14.50019368 31.95964039 -19 22.3125 C-19.49282471 21.27351563 -19.98564941 20.23453125 -20.4934082 19.1640625 C-20.9493335 18.17792969 -21.40525879 17.19179688 -21.875 16.17578125 C-22.28492187 15.29833252 -22.69484375 14.42088379 -23.1171875 13.5168457 C-24 11 -24 11 -24 6 C-20.7 5.34 -17.4 4.68 -14 4 C-9.98024899 10.08705153 -6.89111876 16.30736763 -4 23 C-2.3960906 21.3960906 -2.68447556 19.562398 -2.5 17.34375 C-2.4175 16.40402344 -2.335 15.46429688 -2.25 14.49609375 C-2.1675 13.50738281 -2.085 12.51867187 -2 11.5 C-1.83743307 9.5517369 -1.67097771 7.603793 -1.5 5.65625 C-1.4278125 4.78806641 -1.355625 3.91988281 -1.28125 3.02539062 C-1 1 -1 1 0 0 Z " fill="#C2090A" transform="translate(118,5)"/>
<path d="M0 0 C1.1875 3.4375 1.1875 3.4375 2 7 C1.67 7.66 1.34 8.32 1 9 C2.32 9 3.64 9 5 9 C5 9.99 5 10.98 5 12 C6.65 11.67 8.3 11.34 10 11 C8.7837841 14.08108029 7.48051302 17.03897396 6 20 C6.32046309 22.45393363 6.32046309 22.45393363 6.9375 25.125 C7.13214844 26.03507812 7.32679687 26.94515625 7.52734375 27.8828125 C7.68332031 28.58148438 7.83929688 29.28015625 8 30 C8.66 30 9.32 30 10 30 C10.33 30.99 10.66 31.98 11 33 C10.01 33.66 9.02 34.32 8 35 C10.0745356 35.1490712 10.0745356 35.1490712 12 34 C14.125 34.4375 14.125 34.4375 16 35 C16 35.66 16 36.32 16 37 C17.98 36.505 17.98 36.505 20 36 C19.34 38.97 18.68 41.94 18 45 C14.37 45 10.74 45 7 45 C7 43.68 7 42.36 7 41 C6.4013916 40.77795898 5.8027832 40.55591797 5.18603516 40.32714844 C-1.40220313 37.79899969 -7.48551932 34.71539576 -13.625 31.25 C-14.53378906 30.74339844 -15.44257813 30.23679688 -16.37890625 29.71484375 C-18.58897519 28.48185792 -20.79586645 27.24355482 -23 26 C-22.2102001 17.08956462 -20.96509589 6.33190535 -14 0 C-9.46108308 -2.69881546 -4.70051419 -2.35025709 0 0 Z M-7 13 C-9.36980013 15.95377498 -9.36980013 15.95377498 -9 20 C-6.525 20.99 -6.525 20.99 -4 22 C-4 19.36 -4 16.72 -4 14 C-4.99 13.67 -5.98 13.34 -7 13 Z " fill="#C30405" transform="translate(32,81)"/>
<path d="M0 0 C1.81242052 -0.02687279 3.62495233 -0.04633715 5.4375 -0.0625 C6.44683594 -0.07410156 7.45617187 -0.08570313 8.49609375 -0.09765625 C11 0 11 0 12 1 C12.02897744 2.59244192 11.98655901 4.186289 11.9140625 5.77734375 C11.87023437 6.76669922 11.82640625 7.75605469 11.78125 8.77539062 C11.7296875 9.81888672 11.678125 10.86238281 11.625 11.9375 C11.58117187 12.94619141 11.53734375 13.95488281 11.4921875 14.99414062 C10.59213053 34.40786947 10.59213053 34.40786947 8 37 C8.7425 37.928125 8.7425 37.928125 9.5 38.875 C11 41 11 41 11 43 C13.97 42.505 13.97 42.505 17 42 C16.67 42.99 16.34 43.98 16 45 C17.98 44.505 17.98 44.505 20 44 C19.67 44.99 19.34 45.98 19 47 C21.79117245 47.24803781 24.58115074 47.47414334 27.375 47.6875 C28.56609375 47.79674805 28.56609375 47.79674805 29.78125 47.90820312 C32.35167167 48.12839777 32.35167167 48.12839777 36 48 C38.2773501 45.18490007 38.2773501 45.18490007 38 42 C34.7 41.34 31.4 40.68 28 40 C28 39.34 28 38.68 28 38 C29.81293089 38.14037521 31.6253443 38.28744889 33.4375 38.4375 C34.44683594 38.51871094 35.45617187 38.59992187 36.49609375 38.68359375 C39 39 39 39 40 40 C40.26656548 44.6204683 39.83737243 47.78784186 38 52 C37.39752441 51.90912109 36.79504883 51.81824219 36.17431641 51.72460938 C23.02400989 49.7778948 10.29427552 48.55187835 -3 49 C-3.30133395 7.05894983 -3.30133395 7.05894983 0 0 Z M1 3 C2 5 2 5 2 5 Z " fill="#C40305" transform="translate(138,3)"/>
<path d="M0 0 C8.49018663 7.56734025 13.37774303 16.69303491 15.28515625 27.9921875 C15.50023111 32.79864296 14.10990357 36.42378968 11.875 40.5625 C10.885 41.2225 9.895 41.8825 8.875 42.5625 C8.875 39.9225 8.875 37.2825 8.875 34.5625 C5.52066891 35.51183899 2.18253495 36.45998835 -1.125 37.5625 C-0.795 38.8825 -0.465 40.2025 -0.125 41.5625 C-1.115 41.5625 -2.105 41.5625 -3.125 41.5625 C-3.75 38.1875 -3.75 38.1875 -4.125 34.5625 C-3.465 33.9025 -2.805 33.2425 -2.125 32.5625 C-0.805 32.5625 0.515 32.5625 1.875 32.5625 C1.36790849 27.07605154 -0.03855443 23.08530286 -2.625 18.25 C-2.94597656 17.63060547 -3.26695313 17.01121094 -3.59765625 16.37304688 C-4.43206211 14.76533182 -5.27777884 13.1634988 -6.125 11.5625 C-6.455 10.9025 -6.785 10.2425 -7.125 9.5625 C-6.465 9.5625 -5.805 9.5625 -5.125 9.5625 C-5.16625 8.61375 -5.2075 7.665 -5.25 6.6875 C-5.125 3.5625 -5.125 3.5625 -3.125 1.5625 C-7.25473628 2.12989868 -7.25473628 2.12989868 -11.125 3.5625 C-11.125 2.5725 -11.125 1.5825 -11.125 0.5625 C-12.775 0.8925 -14.425 1.2225 -16.125 1.5625 C-13.48887909 -3.70974182 -4.40920084 -2.02823239 0 0 Z " fill="#C21011" transform="translate(87.125,21.4375)"/>
<path d="M0 0 C0.66 0.66 1.32 1.32 2 2 C1.01 2.33 0.02 2.66 -1 3 C-1.99 4.485 -1.99 4.485 -3 6 C-5.475 5.505 -5.475 5.505 -8 5 C-7.67 7.31 -7.34 9.62 -7 12 C-6.195625 12.309375 -5.39125 12.61875 -4.5625 12.9375 C-2 14 -2 14 -1 15 C-0.92820036 16.51928038 -0.91607993 18.04167482 -0.9375 19.5625 C-0.94652344 20.38878906 -0.95554687 21.21507813 -0.96484375 22.06640625 C-0.97644531 22.70449219 -0.98804687 23.34257813 -1 24 C-1.99 24.33 -2.98 24.66 -4 25 C-3.34 26.98 -2.68 28.96 -2 31 C-2.66 31.66 -3.32 32.32 -4 33 C-3.2575 33.0825 -2.515 33.165 -1.75 33.25 C1.55699631 34.15190808 2.68452365 35.53513808 5 38 C7.13309192 39.23512079 7.13309192 39.23512079 9 40 C6.20135246 41.14518602 5.13565573 41.05280819 2.2668457 39.93603516 C1.24679443 39.39253418 0.22674316 38.8490332 -0.82421875 38.2890625 C-1.93474609 37.70382813 -3.04527344 37.11859375 -4.18945312 36.515625 C-5.34380859 35.89171875 -6.49816406 35.2678125 -7.6875 34.625 C-8.85345703 34.00882813 -10.01941406 33.39265625 -11.22070312 32.7578125 C-19.79820458 28.20179542 -19.79820458 28.20179542 -21 27 C-20.56885252 18.23333449 -18.77457212 7.15870192 -12 1 C-7.84280575 -1.47184523 -4.63586863 -1.04963063 0 0 Z M-5 14 C-7.36980013 16.95377498 -7.36980013 16.95377498 -7 21 C-4.525 21.99 -4.525 21.99 -2 23 C-2 20.36 -2 17.72 -2 15 C-2.99 14.67 -3.98 14.34 -5 14 Z " fill="#C01315" transform="translate(30,80)"/>
<path d="M0 0 C1.85772162 0.08984301 3.71247985 0.24611861 5.5625 0.4375 C6.522771 0.53683838 7.48304199 0.63617676 8.47241211 0.73852539 C9.30651611 0.82481201 10.14062012 0.91109863 11 1 C11.14268634 8.95575409 10.71791325 16.76620042 10 24.6875 C9.90460938 25.78255859 9.80921875 26.87761719 9.7109375 28.00585938 C9.47817635 30.67097457 9.2411367 33.33563186 9 36 C8.67 36 8.34 36 8 36 C7.85340989 24.95687814 8.2931751 14.01889539 9 3 C6.03 2.505 6.03 2.505 3 2 C2.5164853 4.47839295 2.03703622 6.95738194 1.5625 9.4375 C1.35282593 10.53215576 1.35282593 10.53215576 1.13891602 11.64892578 C0.40645363 15.55452452 -0.21117937 19.41288399 -0.5625 23.375 C-1 27 -1 27 -3 29 C-3.66 29 -4.32 29 -5 29 C-5.66 27.68 -6.32 26.36 -7 25 C-6.67 25.99 -6.34 26.98 -6 28 C-7.8125 28.625 -7.8125 28.625 -10 29 C-10.99 28.34 -11.98 27.68 -13 27 C-13.66 28.32 -14.32 29.64 -15 31 C-16.51545463 27.7778676 -18.00955711 24.54626873 -19.5 21.3125 C-19.92925781 20.40048828 -20.35851562 19.48847656 -20.80078125 18.54882812 C-21.20683594 17.66259766 -21.61289063 16.77636719 -22.03125 15.86328125 C-22.40830078 15.05157471 -22.78535156 14.23986816 -23.17382812 13.40356445 C-24 11 -24 11 -24 6 C-20.7 5.34 -17.4 4.68 -14 4 C-9.98024899 10.08705153 -6.89111876 16.30736763 -4 23 C-2.3960906 21.3960906 -2.68447556 19.562398 -2.5 17.34375 C-2.4175 16.40402344 -2.335 15.46429688 -2.25 14.49609375 C-2.1675 13.50738281 -2.085 12.51867187 -2 11.5 C-1.83743307 9.5517369 -1.67097771 7.603793 -1.5 5.65625 C-1.4278125 4.78806641 -1.355625 3.91988281 -1.28125 3.02539062 C-1 1 -1 1 0 0 Z " fill="#C41C1C" transform="translate(118,5)"/>
<path d="M0 0 C1.125 3.75 1.125 3.75 0 6 C1.98 6 3.96 6 6 6 C6 17.55 6 29.1 6 41 C8.97 41 11.94 41 15 41 C15 41.66 15 42.32 15 43 C15.99 42.67 16.98 42.34 18 42 C17.505 46.95 17.505 46.95 17 52 C11.5649376 54.52222609 5.72108722 55.30242603 -0.13867188 56.32421875 C-5.19030112 57.29888604 -7.40494283 58.22593583 -11 62 C-13.58818718 62.75973074 -15.92614173 63.31781012 -18.5625 63.75 C-19.23474609 63.87503906 -19.90699219 64.00007813 -20.59960938 64.12890625 C-23.44106143 64.64245568 -26.1076163 65 -29 65 C-30.20272819 62.59454362 -30.10071472 61.05003047 -30.0625 58.375 C-30.05347656 57.55773437 -30.04445313 56.74046875 -30.03515625 55.8984375 C-30.02355469 55.27195313 -30.01195313 54.64546875 -30 54 C-21.92371153 52.07084607 -14.94772918 50.63930843 -6.62890625 51.8046875 C-2.75028386 52.09284667 0.7581427 51.28757054 4.5390625 50.48046875 C7.39404636 49.92306714 10.098503 49.84316232 13 50 C13.33 47.36 13.66 44.72 14 42 C11.03 42 8.06 42 5 42 C5 30.45 5 18.9 5 7 C3.02 7.33 1.04 7.66 -1 8 C-0.67 5.36 -0.34 2.72 0 0 Z " fill="#C22324" transform="translate(53,121)"/>
<path d="M0 0 C5.05639615 1.26409904 5.05639615 1.26409904 7 4 C7.0390625 6.2265625 7.0390625 6.2265625 6.625 8.625 C6.38510606 10.07847507 6.16907855 11.53659598 6 13 C6.33 13.33 6.66 13.66 7 14 C7.04063832 15.66617115 7.042721 17.33388095 7 19 C8.32 19.33 9.64 19.66 11 20 C11 19.34 11 18.68 11 18 C11.99 18 12.98 18 14 18 C14 18.66 14 19.32 14 20 C17.3 20.33 20.6 20.66 24 21 C24.495 22.98 24.495 22.98 25 25 C23.5703125 27.2578125 23.5703125 27.2578125 21 29 C18.10791521 29.1833428 15.71701025 29.15970943 12.875 28.875 C12.14667969 28.82601562 11.41835937 28.77703125 10.66796875 28.7265625 C5.28909394 28.28909394 5.28909394 28.28909394 3 26 C3.99 26 4.98 26 6 26 C4.68 25.67 3.36 25.34 2 25 C2 24.34 2 23.68 2 23 C1.236875 23.0825 0.47375 23.165 -0.3125 23.25 C-3 23 -3 23 -4.6875 21.25 C-5.88401827 19.19882582 -7.00007307 17.15368877 -8 15 C-6.68 14.67 -5.36 14.34 -4 14 C-3.67 12.68 -3.34 11.36 -3 10 C-2.34 10 -1.68 10 -1 10 C-0.67 6.7 -0.34 3.4 0 0 Z " fill="#C20304" transform="translate(152,23)"/>
<path d="M0 0 C-1.32 0.33 -2.64 0.66 -4 1 C-4 1.99 -4 2.98 -4 4 C-0.37 4 3.26 4 7 4 C7.09765625 10.15234375 7.09765625 10.15234375 7 12 C6 13 6 13 3.93359375 13.09765625 C3.10988281 13.08605469 2.28617188 13.07445312 1.4375 13.0625 C0.61121094 13.05347656 -0.21507813 13.04445312 -1.06640625 13.03515625 C-1.70449219 13.02355469 -2.34257813 13.01195312 -3 13 C-2.67 13.99 -2.34 14.98 -2 16 C-1.96045766 18.33299825 -1.95598268 20.66708189 -2 23 C-1.030625 23.144375 -0.06125 23.28875 0.9375 23.4375 C4 24 4 24 5 25 C5.15088074 29.52642225 5.10424872 33.58300512 4 38 C-2.18160604 37.46246904 -7.326858 35.45417612 -13 33 C-11.02 32.505 -11.02 32.505 -9 32 C-9.66 29.69 -10.32 27.38 -11 25 C-10.01 24.67 -9.02 24.34 -8 24 C-7.67 23.34 -7.34 22.68 -7 22 C-6.01 22 -5.02 22 -4 22 C-4 18.37 -4 14.74 -4 11 C-4.99 11.495 -4.99 11.495 -6 12 C-6.62457273 8.56484998 -7 5.50935186 -7 2 C-11.95 2 -16.9 2 -22 2 C-22 1.67 -22 1.34 -22 1 C-19.45947886 0.63491323 -16.9182372 0.28268543 -14.375 -0.0625 C-13.30572266 -0.2181543 -13.30572266 -0.2181543 -12.21484375 -0.37695312 C-7.89893076 -0.95108834 -4.30515309 -0.97103611 0 0 Z M-3 5 C-3 5.66 -3 6.32 -3 7 C-2.01 6.67 -1.02 6.34 0 6 C-0.99 5.67 -1.98 5.34 -3 5 Z " fill="#C31013" transform="translate(43,122)"/>
<path d="M0 0 C-0.99 1.485 -0.99 1.485 -2 3 C-1.979375 3.845625 -1.95875 4.69125 -1.9375 5.5625 C-1.958125 6.366875 -1.97875 7.17125 -2 8 C-2.99 8.66 -3.98 9.32 -5 10 C-5.33 8.68 -5.66 7.36 -6 6 C-9.63 6.33 -13.26 6.66 -17 7 C-16.67 9.64 -16.34 12.28 -16 15 C-15.071875 15.268125 -14.14375 15.53625 -13.1875 15.8125 C-10.23759634 16.91148371 -8.94384814 17.62418561 -7 20 C-6.67 18.35 -6.34 16.7 -6 15 C-5.34 15 -4.68 15 -4 15 C-3.67 14.01 -3.34 13.02 -3 12 C-2.34 12 -1.68 12 -1 12 C-1 11.34 -1 10.68 -1 10 C0.98 9.67 2.96 9.34 5 9 C5.33 7.35 5.66 5.7 6 4 C9.34373475 4.55728913 12.03312999 5.35173889 15 7 C14.67 7.66 14.34 8.32 14 9 C13.01 9 12.02 9 11 9 C10.01 10.485 10.01 10.485 9 12 C5.875 12.6875 5.875 12.6875 3 13 C4.98 13.66 6.96 14.32 9 15 C8.34 15.66 7.68 16.32 7 17 C7.66 17.66 8.32 18.32 9 19 C6.83125748 18.49396008 5.00032373 18.00016187 3 17 C2.67 17.66 2.34 18.32 2 19 C2.66 19.66 3.32 20.32 4 21 C4.33 21.66 4.66 22.32 5 23 C4.34 23.33 3.68 23.66 3 24 C3.598125 24.2475 4.19625 24.495 4.8125 24.75 C7.28647521 26.16370012 8.43370255 27.65055383 10 30 C3.27148879 28.00094957 -2.80656032 25.28513181 -9 22 C-10.28583984 21.34257812 -10.28583984 21.34257812 -11.59765625 20.671875 C-12.41105469 20.24390625 -13.22445313 19.8159375 -14.0625 19.375 C-15.16271484 18.79878906 -15.16271484 18.79878906 -16.28515625 18.2109375 C-18 17 -18 17 -19 14 C-19.23262217 9.73526025 -19.38528046 6.61156885 -17 3 C-11.64812345 0.02426781 -5.98566585 -0.32649086 0 0 Z " fill="#C61516" transform="translate(20,124)"/>
<path d="M0 0 C0.33 0 0.66 0 1 0 C0.85892253 1.45880109 0.71197585 2.91703551 0.5625 4.375 C0.48128906 5.18710938 0.40007812 5.99921875 0.31640625 6.8359375 C0 9 0 9 -1 11 C-7.6 11 -14.2 11 -21 11 C-21.33 11.99 -21.66 12.98 -22 14 C-17.38 14.66 -12.76 15.32 -8 16 C-7 20 -7 20 -9 27 C-14.28 27 -19.56 27 -25 27 C-25.33 28.32 -25.66 29.64 -26 31 C-24.02 31 -22.04 31 -20 31 C-20.99 32.32 -21.98 33.64 -23 35 C-24.875 34.5 -24.875 34.5 -27 33 C-28.92082246 27.60340357 -29.33407632 23.66982436 -28 18 C-27.34 17.01 -26.68 16.02 -26 15 C-25.34 15 -24.68 15 -24 15 C-24.33 14.01 -24.66 13.02 -25 12 C-23.36927777 10.0408526 -22.44921166 9.0931671 -19.9152832 8.56762695 C-19.13499756 8.54144287 -18.35471191 8.51525879 -17.55078125 8.48828125 C-16.70322266 8.45283203 -15.85566406 8.41738281 -14.98242188 8.38085938 C-14.10134766 8.35830078 -13.22027344 8.33574219 -12.3125 8.3125 C-10.97348633 8.26125977 -10.97348633 8.26125977 -9.60742188 8.20898438 C-7.40538879 8.12655533 -5.20271418 8.06159953 -3 8 C-2.01 5.36 -1.02 2.72 0 0 Z " fill="#BD1213" transform="translate(186,9)"/>
<path d="M0 0 C0.99 0.33 1.98 0.66 3 1 C3.33 4.3 3.66 7.6 4 11 C5.485 11.495 5.485 11.495 7 12 C8.125 17.75 8.125 17.75 7 20 C6.38253906 19.82082031 5.76507813 19.64164063 5.12890625 19.45703125 C-1.43770688 17.80788183 -5.89298767 18.01490232 -12 21 C-14.45580941 22.52112808 -14.45580941 22.52112808 -16 24 C-16.2475 23.030625 -16.495 22.06125 -16.75 21.0625 C-17.36875 19.5465625 -17.36875 19.5465625 -18 18 C-20.03243548 17.03122943 -20.03243548 17.03122943 -22 17 C-22 16.34 -22 15.68 -22 15 C-23.65 15.33 -25.3 15.66 -27 16 C-26.75 12.625 -26.75 12.625 -26 9 C-24.68 8.34 -23.36 7.68 -22 7 C-20.35 9.64 -18.7 12.28 -17 15 C-15.20767663 14.69128878 -13.41615679 14.37790936 -11.625 14.0625 C-10.62726563 13.88847656 -9.62953125 13.71445312 -8.6015625 13.53515625 C-6.03090344 13.12287938 -6.03090344 13.12287938 -4 12 C-3.38438582 9.45123766 -3.38438582 9.45123766 -3 6.5 C-2.5625 3.46875 -2.5625 3.46875 -2 1 C-1.34 0.67 -0.68 0.34 0 0 Z " fill="#BC1A1D" transform="translate(130,42)"/>
<path d="M0 0 C3.60296594 -0.41176754 4.78402067 -0.1535853 7.8125 2 C8.534375 2.66 9.25625 3.32 10 4 C10.33 3.34 10.66 2.68 11 2 C11.66 2 12.32 2 13 2 C13.33 3.65 13.66 5.3 14 7 C14.66 7 15.32 7 16 7 C17.6875 9.3125 17.6875 9.3125 19 12 C18 15 18 15 16 17 C16.33 17.99 16.66 18.98 17 20 C14.625 21.0625 14.625 21.0625 12 22 C11.34 21.67 10.68 21.34 10 21 C9.375 17.9375 9.375 17.9375 9 15 C8.1028125 15.3403125 8.1028125 15.3403125 7.1875 15.6875 C6.465625 15.790625 5.74375 15.89375 5 16 C3.25 14.5625 3.25 14.5625 2 13 C1.67 13.66 1.34 14.32 1 15 C0.01 15.33 -0.98 15.66 -2 16 C-3.25664978 13.09399739 -4 11.20395416 -4 8 C-2.35 8 -0.7 8 1 8 C1.33 6.68 1.66 5.36 2 4 C1.34 4 0.68 4 0 4 C0 2.68 0 1.36 0 0 Z " fill="#C20203" transform="translate(62,54)"/>
<path d="M0 0 C0.33 0 0.66 0 1 0 C1 8.58 1 17.16 1 26 C2.23267348 24.99163938 2.23267348 24.99163938 2.09765625 22.93359375 C2.08605469 22.10988281 2.07445312 21.28617188 2.0625 20.4375 C2.04896484 19.19806641 2.04896484 19.19806641 2.03515625 17.93359375 C2.02355469 17.29550781 2.01195312 16.65742187 2 16 C4 17 6 18 8 19 C8 18.34 8 17.68 8 17 C9.98 17.66 11.96 18.32 14 19 C14 19.66 14 20.32 14 21 C15.98 20.67 17.96 20.34 20 20 C19.67 20.99 19.34 21.98 19 23 C20.32 22.67 21.64 22.34 23 22 C22.67 22.99 22.34 23.98 22 25 C24.79117245 25.24803781 27.58115074 25.47414334 30.375 25.6875 C31.1690625 25.76033203 31.963125 25.83316406 32.78125 25.90820312 C35.35167167 26.12839777 35.35167167 26.12839777 39 26 C41.2773501 23.18490007 41.2773501 23.18490007 41 20 C36.05 19.01 36.05 19.01 31 18 C31 17.34 31 16.68 31 16 C32.81293089 16.14037521 34.6253443 16.28744889 36.4375 16.4375 C37.95150391 16.55931641 37.95150391 16.55931641 39.49609375 16.68359375 C42 17 42 17 43 18 C43.26656548 22.6204683 42.83737243 25.78784186 41 30 C40.39752441 29.90912109 39.79504883 29.81824219 39.17431641 29.72460938 C25.9723711 27.77025042 13.34854265 26.6690444 0 27 C0 18.09 0 9.18 0 0 Z " fill="#CD3D3E" transform="translate(135,25)"/>
<path d="M0 0 C2.97 0.495 2.97 0.495 6 1 C6.02685412 3.31243792 6.04632841 5.6249627 6.0625 7.9375 C6.07410156 9.22527344 6.08570312 10.51304688 6.09765625 11.83984375 C6 15 6 15 5 16 C4.76346477 18.52596259 4.57826308 21.03107207 4.4375 23.5625 C4.39431641 24.27341797 4.35113281 24.98433594 4.30664062 25.71679688 C4.20028223 27.47761912 4.09961154 29.2387832 4 31 C2.35 31 0.7 31 -1 31 C-1 30.34 -1 29.68 -1 29 C-1.66 29 -2.32 29 -3 29 C-5.69772012 20.90683965 -3.84779583 11.13258286 -2 3 C-1.34 2.01 -0.68 1.02 0 0 Z " fill="#C40202" transform="translate(121,7)"/>
<path d="M0 0 C1.81242052 -0.02687279 3.62495233 -0.04633715 5.4375 -0.0625 C6.44683594 -0.07410156 7.45617187 -0.08570313 8.49609375 -0.09765625 C11 0 11 0 12 1 C12.01670061 2.71003031 11.96290858 4.42085878 11.87890625 6.12890625 C11.83056641 7.16337891 11.78222656 8.19785156 11.73242188 9.26367188 C11.67634766 10.35228516 11.62027344 11.44089844 11.5625 12.5625 C11.51029297 13.65498047 11.45808594 14.74746094 11.40429688 15.87304688 C11.27415852 18.58229076 11.13917946 21.29120794 11 24 C10.67 24 10.34 24 10 24 C8.88834768 19.5621439 8.88472237 15.23043614 8.9375 10.6875 C8.94201172 9.94693359 8.94652344 9.20636719 8.95117188 8.44335938 C8.96287825 6.62887101 8.98081102 4.81442466 9 3 C8.34 3 7.68 3 7 3 C6.67 5.31 6.34 7.62 6 10 C5.34 10 4.68 10 4 10 C3.93941406 10.69867188 3.87882813 11.39734375 3.81640625 12.1171875 C3.73261719 13.02726562 3.64882812 13.93734375 3.5625 14.875 C3.48128906 15.77992187 3.40007812 16.68484375 3.31640625 17.6171875 C3 20 3 20 2 22 C1.34 22 0.68 22 0 22 C0 24.97 0 27.94 0 31 C-0.33 31 -0.66 31 -1 31 C-1 26.05 -1 21.1 -1 16 C-1.33 16 -1.66 16 -2 16 C-2.05449838 14.27119018 -2.09301688 12.54187288 -2.125 10.8125 C-2.14820313 9.84957031 -2.17140625 8.88664063 -2.1953125 7.89453125 C-1.9913544 4.87187222 -1.26874632 2.73230015 0 0 Z M1 3 C2 5 2 5 2 5 Z " fill="#C2393B" transform="translate(138,3)"/>
<path d="M0 0 C0.76570312 0.24556641 0.76570312 0.24556641 1.546875 0.49609375 C4.81291828 1.16698481 7.9186747 1.0933456 11.25 1.0625 C12.51328125 1.05347656 13.7765625 1.04445313 15.078125 1.03515625 C16.52445313 1.01775391 16.52445313 1.01775391 18 1 C17.25 7.75 17.25 7.75 15 10 C12.84521484 10.31884766 12.84521484 10.31884766 10.2109375 10.4140625 C9.26992187 10.45273437 8.32890625 10.49140625 7.359375 10.53125 C6.37453125 10.5621875 5.3896875 10.593125 4.375 10.625 C2.88613281 10.68300781 2.88613281 10.68300781 1.3671875 10.7421875 C-1.08835385 10.8366314 -3.5438841 10.92219875 -6 11 C-6 11.66 -6 12.32 -6 13 C-6.66 13 -7.32 13 -8 13 C-7.75 10.625 -7.75 10.625 -7 8 C-4.73074269 6.48716179 -1.78231139 5 1 5 C0.34 4.01 -0.32 3.02 -1 2 C-0.67 1.34 -0.34 0.68 0 0 Z " fill="#BD0606" transform="translate(168,8)"/>
<path d="M0 0 C0 15.84 0 31.68 0 48 C-10 43 -10 43 -13 40 C-11.68 40 -10.36 40 -9 40 C-8.67 40.33 -8.34 40.66 -8 41 C-8 40.01 -8 39.02 -8 38 C-5.03 37.505 -5.03 37.505 -2 37 C-2.05329468 35.72153198 -2.05329468 35.72153198 -2.10766602 34.41723633 C-2.23727206 31.23983267 -2.36151308 28.0622763 -2.48217773 24.88452148 C-2.53538216 23.51204126 -2.59069309 22.13964095 -2.64819336 20.76733398 C-2.73070839 18.7891258 -2.80489585 16.81057586 -2.87890625 14.83203125 C-2.9260376 13.64327393 -2.97316895 12.4545166 -3.02172852 11.22973633 C-3.00212782 8.31628032 -2.69052984 5.82024478 -2 3 C-2.99 2.67 -3.98 2.34 -5 2 C-2 0 -2 0 0 0 Z " fill="#C43536" transform="translate(190,100)"/>
<path d="M0 0 C0.33 0 0.66 0 1 0 C1 2.97 1 5.94 1 9 C0.01 9.33 -0.98 9.66 -2 10 C-1.34 11.98 -0.68 13.96 0 16 C-0.66 16.66 -1.32 17.32 -2 18 C-1.2575 18.0825 -0.515 18.165 0.25 18.25 C3.55699631 19.15190808 4.68452365 20.53513808 7 23 C9.13309192 24.23512079 9.13309192 24.23512079 11 25 C8.28643463 26.07481756 7.20464086 26.07881439 4.43457031 25.01196289 C3.49194336 24.5039917 2.54931641 23.99602051 1.578125 23.47265625 C0.55332031 22.92802734 -0.47148437 22.38339844 -1.52734375 21.82226562 C-2.59082031 21.24154297 -3.65429688 20.66082031 -4.75 20.0625 C-6.36841797 19.1972168 -6.36841797 19.1972168 -8.01953125 18.31445312 C-10.68568256 16.88700043 -13.34528277 15.44857424 -16 14 C-15.360625 13.87625 -14.72125 13.7525 -14.0625 13.625 C-13.381875 13.41875 -12.70125 13.2125 -12 13 C-11.67 12.34 -11.34 11.68 -11 11 C-10.34 11 -9.68 11 -9 11 C-8.67 10.01 -8.34 9.02 -8 8 C-7.34 8 -6.68 8 -6 8 C-6 6.35 -6 4.7 -6 3 C-5.67 3.99 -5.34 4.98 -5 6 C-2.98491642 6.73323796 -2.98491642 6.73323796 -1 7 C-0.67 4.69 -0.34 2.38 0 0 Z " fill="#C72B2B" transform="translate(28,95)"/>
<path d="M0 0 C1.65 0 3.3 0 5 0 C5.12117188 0.74765625 5.24234375 1.4953125 5.3671875 2.265625 C5.53476563 3.25046875 5.70234375 4.2353125 5.875 5.25 C6.11863281 6.71179687 6.11863281 6.71179687 6.3671875 8.203125 C6.94855848 10.77264117 7.70840265 12.72071056 9 15 C12.465 14.505 12.465 14.505 16 14 C16 12.35 16 10.7 16 9 C16.33 9 16.66 9 17 9 C17.31365567 14.95945778 16.85002662 18.72217292 14 24 C13.01 24.66 12.02 25.32 11 26 C11 23.36 11 20.72 11 18 C7.64566891 18.94933899 4.30753495 19.89748835 1 21 C1.33 22.32 1.66 23.64 2 25 C1.01 25 0.02 25 -1 25 C-1.625 21.625 -1.625 21.625 -2 18 C-1.34 17.34 -0.68 16.68 0 16 C1.32 16 2.64 16 4 16 C3.39891424 10.34979382 1.92471317 5.33835539 0 0 Z " fill="#C73436" transform="translate(85,38)"/>
<path d="M0 0 C1.125 3.75 1.125 3.75 0 6 C1.98 6 3.96 6 6 6 C6 17.55 6 29.1 6 41 C8.97 41 11.94 41 15 41 C15 41.66 15 42.32 15 43 C16.485 42.505 16.485 42.505 18 42 C17.67 45.3 17.34 48.6 17 52 C12.44508386 54.20399168 7.97093824 54.58846263 3 55 C3 54.34 3 53.68 3 53 C0.69 53 -1.62 53 -4 53 C-4 52.67 -4 52.34 -4 52 C7.52164009 49.70387244 7.52164009 49.70387244 13 50 C13.33 47.36 13.66 44.72 14 42 C11.03 42 8.06 42 5 42 C5 30.45 5 18.9 5 7 C3.02 7.33 1.04 7.66 -1 8 C-0.67 5.36 -0.34 2.72 0 0 Z " fill="#E28788" transform="translate(53,121)"/>
<path d="M0 0 C-1.32 0.33 -2.64 0.66 -4 1 C-4 1.99 -4 2.98 -4 4 C-0.37 4 3.26 4 7 4 C7.09765625 10.15234375 7.09765625 10.15234375 7 12 C6 13 6 13 3.93359375 13.09765625 C3.10988281 13.08605469 2.28617188 13.07445312 1.4375 13.0625 C0.61121094 13.05347656 -0.21507813 13.04445312 -1.06640625 13.03515625 C-1.70449219 13.02355469 -2.34257813 13.01195312 -3 13 C-3.33 12.34 -3.66 11.68 -4 11 C-4.99 11.495 -4.99 11.495 -6 12 C-6.62457273 8.56484998 -7 5.50935186 -7 2 C-11.95 2 -16.9 2 -22 2 C-22 1.67 -22 1.34 -22 1 C-19.45947886 0.63491323 -16.9182372 0.28268543 -14.375 -0.0625 C-13.30572266 -0.2181543 -13.30572266 -0.2181543 -12.21484375 -0.37695312 C-7.89893076 -0.95108834 -4.30515309 -0.97103611 0 0 Z M-3 5 C-3 5.66 -3 6.32 -3 7 C-2.01 6.67 -1.02 6.34 0 6 C-0.99 5.67 -1.98 5.34 -3 5 Z " fill="#BF2C30" transform="translate(43,122)"/>
<path d="M0 0 C2.61527381 2.36620011 4.26440562 4.942048 6 8 C7.79232337 7.69128878 9.58384321 7.37790936 11.375 7.0625 C12.37273437 6.88847656 13.37046875 6.71445312 14.3984375 6.53515625 C16.96909656 6.12287938 16.96909656 6.12287938 19 5 C20.13350534 2.98330173 20.13350534 2.98330173 21 1 C22.125 4.75 22.125 4.75 21 7 C19.35636866 7.72159424 17.68949614 8.39351421 16 9 C17.32 9.66 18.64 10.32 20 11 C19.39671875 11.18175781 18.7934375 11.36351562 18.171875 11.55078125 C12.14414802 13.41987906 12.14414802 13.41987906 7 17 C6.7525 16.030625 6.505 15.06125 6.25 14.0625 C5.63125 12.5465625 5.63125 12.5465625 5 11 C2.96756452 10.03122943 2.96756452 10.03122943 1 10 C1 9.34 1 8.68 1 8 C-0.65 8.33 -2.3 8.66 -4 9 C-3.6875 5.625 -3.6875 5.625 -3 2 C-2.01 1.34 -1.02 0.68 0 0 Z " fill="#CF5859" transform="translate(107,49)"/>
<path d="M0 0 C0 4.10493007 -0.90628391 6.46685409 -3 10 C-6.8125 10.625 -6.8125 10.625 -8.9296875 10.7109375 C-12.72104584 11.24029697 -14.43044226 13.24242584 -17 16 C-18.01544811 18.8287483 -18.00134796 20.93664565 -17.9375 23.9375 C-18.00684144 27.33523034 -18.80435246 29.83505064 -20 33 C-20.33 33.99 -20.66 34.98 -21 36 C-22.32 35.67 -23.64 35.34 -25 35 C-25.33 35.99 -25.66 36.98 -26 38 C-27.32 37.67 -28.64 37.34 -30 37 C-30 36.34 -30 35.68 -30 35 C-28.6078125 34.4121875 -28.6078125 34.4121875 -27.1875 33.8125 C-23.53880101 31.73774959 -22.46637199 30.91032532 -21 27 C-21.04995718 25.20709226 -21.13720213 23.41505322 -21.25 21.625 C-21.37238666 18.26616618 -21.40984558 16.5962353 -19.48828125 13.80078125 C-17.72557568 12.09528316 -15.89256727 10.55671601 -14 9 C-13.67 8.34 -13.34 7.68 -13 7 C-10.36 7.33 -7.72 7.66 -5 8 C-4.9175 7.4225 -4.835 6.845 -4.75 6.25 C-3.79468987 3.3840696 -2.21530827 2.0009236 0 0 Z " fill="#C63D3D" transform="translate(99,63)"/>
<path d="M0 0 C1.85772162 0.08984301 3.71247985 0.24611861 5.5625 0.4375 C6.522771 0.53683838 7.48304199 0.63617676 8.47241211 0.73852539 C9.30651611 0.82481201 10.14062012 0.91109863 11 1 C11.14268634 8.95575409 10.71791325 16.76620042 10 24.6875 C9.90460938 25.78255859 9.80921875 26.87761719 9.7109375 28.00585938 C9.47817635 30.67097457 9.2411367 33.33563186 9 36 C8.67 36 8.34 36 8 36 C7.85340989 24.95687814 8.2931751 14.01889539 9 3 C6.03 2.505 6.03 2.505 3 2 C2.5164853 4.47839295 2.03703622 6.95738194 1.5625 9.4375 C1.42271729 10.16727051 1.28293457 10.89704102 1.13891602 11.64892578 C0.40645363 15.55452452 -0.21117937 19.41288399 -0.5625 23.375 C-1 27 -1 27 -3 29 C-3.93423645 25.98968256 -4.04449911 25.13349732 -3 22 C-2.79856535 20.38677427 -2.63634632 18.76846308 -2.5 17.1484375 C-2.4175 16.21515625 -2.335 15.281875 -2.25 14.3203125 C-2.08267494 12.34901411 -1.91601341 10.37765929 -1.75 8.40625 C-1.6675 7.47554687 -1.585 6.54484375 -1.5 5.5859375 C-1.39171875 4.30275635 -1.39171875 4.30275635 -1.28125 2.99365234 C-1 1 -1 1 0 0 Z " fill="#C85B5C" transform="translate(118,5)"/>
<path d="M0 0 C2 3 2 3 2 5 C2.66 5 3.32 5 4 5 C4.33 4.34 4.66 3.68 5 3 C7.4375 3.625 7.4375 3.625 10 5 C10.8125 8.125 10.8125 8.125 11 11 C11.99 11 12.98 11 14 11 C14 12.32 14 13.64 14 15 C13.34 15 12.68 15 12 15 C12 15.66 12 16.32 12 17 C8.51072308 16.68279301 6.44149146 16.33692769 3.625 14.1875 C2 12 2 12 2 8 C0.68 7.34 -0.64 6.68 -2 6 C-1.34 5.67 -0.68 5.34 0 5 C-0.2784375 4.0409375 -0.2784375 4.0409375 -0.5625 3.0625 C-0.7790625 2.0415625 -0.7790625 2.0415625 -1 1 C-0.67 0.67 -0.34 0.34 0 0 Z M2 6 C3 8 3 8 3 8 Z " fill="#C30303" transform="translate(49,78)"/>
<path d="M0 0 C0 0.33 0 0.66 0 1 C-2.10277123 1.22197585 -4.20732302 1.42713637 -6.3125 1.625 C-7.48425781 1.74101562 -8.65601563 1.85703125 -9.86328125 1.9765625 C-13 2 -13 2 -16 0 C-16 0.66 -16 1.32 -16 2 C-14.04783565 3.95216435 -12.46800047 4.84826645 -10 6 C-14.75 7.125 -14.75 7.125 -17 6 C-17.969375 6.165 -18.93875 6.33 -19.9375 6.5 C-23 7 -23 7 -26 6 C-26.33 3.69 -26.66 1.38 -27 -1 C-18.16866413 -3.55536339 -8.82570811 -1.72509478 0 0 Z " fill="#CC0A0B" transform="translate(184,8)"/>
<path d="M0 0 C2.31 0 4.62 0 7 0 C7.99 2.31 8.98 4.62 10 7 C8.5459375 7.8971875 8.5459375 7.8971875 7.0625 8.8125 C3.76947958 10.71127509 3.76947958 10.71127509 3 14 C2.34 14 1.68 14 1 14 C1 13.34 1 12.68 1 12 C0.01 12 -0.98 12 -2 12 C-2.66 9.36 -3.32 6.72 -4 4 C-3.34 4 -2.68 4 -2 4 C-1.34 2.68 -0.68 1.36 0 0 Z " fill="#C00B0D" transform="translate(49,42)"/>
<path d="M0 0 C1 2 2 4 3 6 C2.38125 6.9075 1.7625 7.815 1.125 8.75 C-0.44389611 11.14948817 -1.80443821 13.40961612 -3 16 C-1.35 16.33 0.3 16.66 2 17 C3.18975795 20.56927385 3.12478155 23.79946972 3.09765625 27.51171875 C3.0962413 28.23994339 3.09482635 28.96816803 3.09336853 29.71846008 C3.08777659 32.04151539 3.07522562 34.36447388 3.0625 36.6875 C3.05748396 38.26367048 3.05292123 39.83984248 3.04882812 41.41601562 C3.0378098 45.27738098 3.02055074 49.13867408 3 53 C2.34 53 1.68 53 1 53 C1 41.45 1 29.9 1 18 C-0.98 18 -2.96 18 -5 18 C-4.34 14.7 -3.68 11.4 -3 8 C-2.01 8 -1.02 8 0 8 C-0.185625 7.236875 -0.37125 6.47375 -0.5625 5.6875 C-1 3 -1 3 0 0 Z " fill="#AD0A0A" transform="translate(58,109)"/>
<path d="M0 0 C0.99 0 1.98 0 3 0 C3 0.99 3 1.98 3 3 C3.495 2.505 3.99 2.01 4.5 1.5 C8.11630158 -0.66978095 10.82231616 -0.20888419 15 0 C15 2.97 15 5.94 15 9 C9.54429301 9.08393395 4.3536656 9.115347 -1 8 C-1.33 7.34 -1.66 6.68 -2 6 C-1.01 6 -0.02 6 1 6 C0.67 4.02 0.34 2.04 0 0 Z " fill="#BE0606" transform="translate(161,26)"/>
<path d="M0 0 C2.475 0.495 2.475 0.495 5 1 C5 1.66 5 2.32 5 3 C5.86625 3.38478516 5.86625 3.38478516 6.75 3.77734375 C9.95835933 5.52077512 12.35165799 7.95341308 15 10.44140625 C17.05542919 12.04319579 18.45557105 12.58539439 21 13 C21 12.34 21 11.68 21 11 C21.66 11 22.32 11 23 11 C23 9.68 23 8.36 23 7 C22.01 7 21.02 7 20 7 C19.67 5.02 19.34 3.04 19 1 C21.31 2.98 23.62 4.96 26 7 C24.63312778 10.98671063 22.84804907 13.88494633 20 17 C19.34 17 18.68 17 18 17 C18 19.64 18 22.28 18 25 C17.67 25 17.34 25 17 25 C16.90203125 24.33613281 16.8040625 23.67226562 16.703125 22.98828125 C15.56329031 15.61383417 15.56329031 15.61383417 11 10 C7.6990136 9.01904649 4.41262343 8.43634689 1 8 C2.32 7.34 3.64 6.68 5 6 C3.35 4.02 1.7 2.04 0 0 Z " fill="#D45053" transform="translate(40,82)"/>
<path d="M0 0 C0.81434143 2.85160391 1.11881242 5.36626131 1.09765625 8.328125 C1.09282227 9.52695312 1.09282227 9.52695312 1.08789062 10.75 C1.07951172 11.575 1.07113281 12.4 1.0625 13.25 C1.05798828 14.09046875 1.05347656 14.9309375 1.04882812 15.796875 C1.03707961 17.86461401 1.01914522 19.93231624 1 22 C1.45375 21.505 1.9075 21.01 2.375 20.5 C4 19 4 19 6 19 C6 18.34 6 17.68 6 17 C6.66 17 7.32 17 8 17 C8.33 16.34 8.66 15.68 9 15 C9.68707555 17.49064888 10 19.37886292 10 22 C9.01 22.66 8.02 23.32 7 24 C7.99 24.33 8.98 24.66 10 25 C9.34 25.66 8.68 26.32 8 27 C7.34 26.67 6.68 26.34 6 26 C6 26.66 6 27.32 6 28 C3.5625 27.625 3.5625 27.625 1 27 C0.67 26.34 0.34 25.68 0 25 C0 27.97 0 30.94 0 34 C3.3 34 6.6 34 10 34 C10 34.33 10 34.66 10 35 C6.37 35 2.74 35 -1 35 C-1.02472359 30.49764405 -1.04287119 25.99532764 -1.05493164 21.49291992 C-1.0599596 19.9613374 -1.06678284 18.42975967 -1.07543945 16.89819336 C-1.08757229 14.69643978 -1.09324367 12.49474967 -1.09765625 10.29296875 C-1.10281754 9.60849167 -1.10797882 8.92401459 -1.11329651 8.21879578 C-1.1136536 5.19093758 -0.96616619 2.89849858 0 0 Z " fill="#B61415" transform="translate(137,16)"/>
<path d="M0 0 C0.78375 0.04125 1.5675 0.0825 2.375 0.125 C2.705 0.785 3.035 1.445 3.375 2.125 C3.045 2.785 2.715 3.445 2.375 4.125 C3.365 3.795 4.355 3.465 5.375 3.125 C5.28753716 4.56361294 5.17934652 6.00097508 5.0625 7.4375 C5.00449219 8.23800781 4.94648438 9.03851563 4.88671875 9.86328125 C4.28314137 12.53100114 3.54637814 13.49646639 1.375 15.125 C-1.3125 15.3125 -1.3125 15.3125 -3.625 15.125 C-3.295 13.805 -2.965 12.485 -2.625 11.125 C-3.285 10.795 -3.945 10.465 -4.625 10.125 C-4.8203125 4.0703125 -4.8203125 4.0703125 -4.625 2.125 C-2.625 0.125 -2.625 0.125 0 0 Z " fill="#C20304" transform="translate(17.625,90.875)"/>
<path d="M0 0 C0.33 0.66 0.66 1.32 1 2 C1.763125 1.649375 2.52625 1.29875 3.3125 0.9375 C6 0 6 0 9 1 C8.67 1.66 8.34 2.32 8 3 C7.34 3 6.68 3 6 3 C6.33 3.99 6.66 4.98 7 6 C6.67 6.99 6.34 7.98 6 9 C4.20763933 8.52343588 2.41613103 8.04366502 0.625 7.5625 C-0.37273437 7.29566406 -1.37046875 7.02882813 -2.3984375 6.75390625 C-5 6 -5 6 -7 5 C-5.22678182 1.07358831 -4.52021524 0 0 0 Z M-4 6 C-3.67 6.66 -3.34 7.32 -3 8 C-3.99 8.495 -3.99 8.495 -5 9 C-4.67 9.99 -4.34 10.98 -4 12 C-7 12 -7 12 -9 11 C-9 10.01 -9 9.02 -9 8 C-7.35 7.34 -5.7 6.68 -4 6 Z " fill="#C20405" transform="translate(76,22)"/>
<path d="M0 0 C0.33 0 0.66 0 1 0 C1 2.31 1 4.62 1 7 C1.969375 7.144375 2.93875 7.28875 3.9375 7.4375 C7 8 7 8 8 9 C8.15088074 13.52642225 8.10424872 17.58300512 7 22 C0.375 21.25 0.375 21.25 -3 19 C-0.03 19.33 2.94 19.66 6 20 C5.16666667 17.83333333 5.16666667 17.83333333 3 17 C2.32215008 14.66989091 1.65583207 12.33640176 1 10 C0.34 9.34 -0.32 8.68 -1 8 C-0.96712417 5.27130593 -0.43602229 2.7033382 0 0 Z " fill="#C93F40" transform="translate(40,138)"/>
<path d="M0 0 C6.93 0 13.86 0 21 0 C20.67 0.99 20.34 1.98 20 3 C15.1666528 3.08333357 10.76307437 2.95261487 6 2 C6.33 3.65 6.66 5.3 7 7 C4.03 7 1.06 7 -2 7 C-2.33 6.34 -2.66 5.68 -3 5 C-2.34 4.67 -1.68 4.34 -1 4 C-0.67 2.68 -0.34 1.36 0 0 Z " fill="#BF0305" transform="translate(35,174)"/>
<path d="M0 0 C1.81293089 0.14037521 3.6253443 0.28744889 5.4375 0.4375 C6.95150391 0.55931641 6.95150391 0.55931641 8.49609375 0.68359375 C11 1 11 1 12 2 C12.28243989 6.89562473 11.87499842 9.31250395 10 14 C2.41 13.01 -5.18 12.02 -13 11 C-13 10.67 -13 10.34 -13 10 C-12.37432129 10.01571045 -11.74864258 10.0314209 -11.10400391 10.04760742 C-8.27776069 10.10984675 -5.45166139 10.14895462 -2.625 10.1875 C-1.64015625 10.21263672 -0.6553125 10.23777344 0.359375 10.26367188 C1.30039063 10.27333984 2.24140625 10.28300781 3.2109375 10.29296875 C4.08024902 10.3086792 4.94956055 10.32438965 5.84521484 10.34057617 C6.9118335 10.17199097 6.9118335 10.17199097 8 10 C10.2773501 7.18490007 10.2773501 7.18490007 10 4 C6.7 3.34 3.4 2.68 0 2 C0 1.34 0 0.68 0 0 Z " fill="#C64848" transform="translate(166,41)"/>
<path d="M0 0 C-0.99 1.485 -0.99 1.485 -2 3 C-1.979375 3.845625 -1.95875 4.69125 -1.9375 5.5625 C-1.958125 6.366875 -1.97875 7.17125 -2 8 C-2.99 8.66 -3.98 9.32 -5 10 C-5.33 8.68 -5.66 7.36 -6 6 C-9.63 6.33 -13.26 6.66 -17 7 C-17 8.65 -17 10.3 -17 12 C-17.33 12 -17.66 12 -18 12 C-18.36133603 5.61639676 -18.36133603 5.61639676 -16.9375 3.1875 C-11.56545411 -0.10504425 -6.08197456 -0.21340262 0 0 Z " fill="#C42021" transform="translate(20,124)"/>
<path d="M0 0 C0.33 0 0.66 0 1 0 C0.85892253 1.45880109 0.71197585 2.91703551 0.5625 4.375 C0.48128906 5.18710938 0.40007812 5.99921875 0.31640625 6.8359375 C0 9 0 9 -1 11 C-7.6 11 -14.2 11 -21 11 C-21.33 11.99 -21.66 12.98 -22 14 C-19.03 14.33 -16.06 14.66 -13 15 C-13 15.33 -13 15.66 -13 16 C-16.96 16 -20.92 16 -25 16 C-24.625 13.0625 -24.625 13.0625 -24 10 C-21.70691037 8.85345518 -20.20090344 8.80270883 -17.6484375 8.68359375 C-16.37226563 8.62075195 -16.37226563 8.62075195 -15.0703125 8.55664062 C-13.73613281 8.49766602 -13.73613281 8.49766602 -12.375 8.4375 C-11.4778125 8.39431641 -10.580625 8.35113281 -9.65625 8.30664062 C-7.43768761 8.20043285 -5.21886435 8.09970041 -3 8 C-2.01 5.36 -1.02 2.72 0 0 Z " fill="#C44F52" transform="translate(186,9)"/>
<path d="M0 0 C0 0.66 0 1.32 0 2 C2.475 2.495 2.475 2.495 5 3 C4.67 3.99 4.34 4.98 4 6 C-1.61 6 -7.22 6 -13 6 C-13.33 7.32 -13.66 8.64 -14 10 C-14.66 10 -15.32 10 -16 10 C-15.75 7.625 -15.75 7.625 -15 5 C-12.73330587 3.48887058 -10.5968046 2.86560153 -8 2 C-5.8125 2.4375 -5.8125 2.4375 -4 3 C-4 2.34 -4 1.68 -4 1 C-2 0 -2 0 0 0 Z " fill="#C40002" transform="translate(176,11)"/>
<path d="M0 0 C3.45432283 3.12441559 4.89301928 6.51977883 6 11 C5.6875 14 5.6875 14 5 16 C4.01 15.67 3.02 15.34 2 15 C2 15.66 2 16.32 2 17 C1.34 17 0.68 17 0 17 C-1.0625 15.1875 -1.0625 15.1875 -2 13 C-1.67 12.01 -1.34 11.02 -1 10 C-1.87914688 7.3430809 -1.87914688 7.3430809 -3 5 C-1.68 5 -0.36 5 1 5 C0.67 3.35 0.34 1.7 0 0 Z " fill="#D04544" transform="translate(95,32)"/>
<path d="M0 0 C2.53053501 0.27240887 5.00907412 0.62774795 7.5078125 1.109375 C7.5078125 1.439375 7.5078125 1.769375 7.5078125 2.109375 C5.5278125 2.109375 3.5478125 2.109375 1.5078125 2.109375 C1.41628906 2.69203125 1.32476562 3.2746875 1.23046875 3.875 C0.33580181 6.64121347 -0.95383519 7.87311464 -3.0546875 9.859375 C-4.01568359 10.77976562 -4.01568359 10.77976562 -4.99609375 11.71875 C-5.73666016 12.40710938 -5.73666016 12.40710938 -6.4921875 13.109375 C-8.1421875 12.119375 -9.7921875 11.129375 -11.4921875 10.109375 C-8.4921875 8.109375 -8.4921875 8.109375 -4.4921875 8.109375 C-4.4921875 7.449375 -4.4921875 6.789375 -4.4921875 6.109375 C-5.1521875 5.779375 -5.8121875 5.449375 -6.4921875 5.109375 C-4.79620123 1.94867332 -3.7404579 0.16415803 0 0 Z " fill="#CF3B3D" transform="translate(83.4921875,65.890625)"/>
<path d="M0 0 C2.8125 0.5625 2.8125 0.5625 6 2 C9.1617904 7.16425766 9.77316646 12.02282853 9 18 C8.18635983 21.08154524 7.17599242 24.03901908 6 27 C5.34 27 4.68 27 4 27 C4 27.66 4 28.32 4 29 C2.68 28.67 1.36 28.34 0 28 C1.175625 26.7625 1.175625 26.7625 2.375 25.5 C5.28213463 21.95329576 6.84076926 18.62607191 7 14 C6.31949119 10.84816971 5.23636297 7.97078685 4 5 C3.67 4.01 3.34 3.02 3 2 C2.01 1.67 1.02 1.34 0 1 C0 0.67 0 0.34 0 0 Z " fill="#C34C4C" transform="translate(137,62)"/>
<path d="M0 0 C2.89696854 0.36982577 5.37621929 0.68810965 8 2 C8.625 4.5625 8.625 4.5625 9 7 C7.3125 8.625 7.3125 8.625 5 10 C2.25 9.1875 2.25 9.1875 0 8 C-0.38063221 5.6739143 -0.71269945 3.33944736 -1 1 C-0.67 0.67 -0.34 0.34 0 0 Z " fill="#C50103" transform="translate(85,27)"/>
<path d="M0 0 C2.55162546 3.21574716 3.83269511 6.04912191 5 10 C5.66 10 6.32 10 7 10 C7 9.34 7 8.68 7 8 C8.32 8 9.64 8 11 8 C11 9.65 11 11.3 11 13 C8.69 13.66 6.38 14.32 4 15 C1.55289624 13.13022903 1.03068507 12.17497517 0.48828125 9.08203125 C0.43027344 8.00308594 0.37226562 6.92414062 0.3125 5.8125 C0.21388672 4.18248047 0.21388672 4.18248047 0.11328125 2.51953125 C0.07589844 1.68808594 0.03851563 0.85664062 0 0 Z " fill="#BB0B0B" transform="translate(90,39)"/>
<path d="M0 0 C0.7425 0.165 1.485 0.33 2.25 0.5 C5.19006578 1.11925696 5.19006578 1.11925696 9 1 C9 3.31 9 5.62 9 8 C6.36 8 3.72 8 1 8 C0.67 7.34 0.34 6.68 0 6 C-1.32 6.33 -2.64 6.66 -4 7 C-3.34 6.67 -2.68 6.34 -2 6 C-2 5.01 -2 4.02 -2 3 C-1.34 2.34 -0.68 1.68 0 1 C0 0.67 0 0.34 0 0 Z " fill="#BF0305" transform="translate(116,45)"/>
<path d="M0 0 C2 3 2 3 1.6875 6.125 C1 9 1 9 0 10 C-1.62789352 9.96207417 -3.25428742 9.84487354 -4.875 9.6875 C-6.20144531 9.56955078 -6.20144531 9.56955078 -7.5546875 9.44921875 C-10 9 -10 9 -13 7 C-13 6.34 -13 5.68 -13 5 C-6.25 5.875 -6.25 5.875 -4 7 C-4 6.01 -4 5.02 -4 4 C-3.01 3.67 -2.02 3.34 -1 3 C-0.67 2.01 -0.34 1.02 0 0 Z " fill="#C42C2F" transform="translate(68,74)"/>
<path d="M0 0 C0.99 0.33 1.98 0.66 3 1 C3.10815225 2.76949095 3.18566083 4.54087487 3.25 6.3125 C3.29640625 7.29863281 3.3428125 8.28476562 3.390625 9.30078125 C3 12 3 12 0.984375 13.85546875 C0.32953125 14.23316406 -0.3253125 14.61085938 -1 15 C-1.93619813 11.84493858 -2.1057123 9.03413498 -2.0625 5.75 C-2.05347656 4.85796875 -2.04445313 3.9659375 -2.03515625 3.046875 C-2.02355469 2.37140625 -2.01195313 1.6959375 -2 1 C-1.34 0.67 -0.68 0.34 0 0 Z " fill="#BC0405" transform="translate(130,42)"/>
<path d="M0 0 C0.66 0.33 1.32 0.66 2 1 C2.40729228 3.32156597 2.74438677 5.6568787 3 8 C2.01 8.33 1.02 8.66 0 9 C0.515625 9.78375 1.03125 10.5675 1.5625 11.375 C2.036875 12.24125 2.51125 13.1075 3 14 C2.67 14.66 2.34 15.32 2 16 C-1.875 13.375 -1.875 13.375 -3 10 C-4.423125 9.9071875 -4.423125 9.9071875 -5.875 9.8125 C-6.90625 9.544375 -7.9375 9.27625 -9 9 C-10.375 6.4375 -10.375 6.4375 -11 4 C-8 4 -8 4 -6.3125 5.5 C-5.879375 5.995 -5.44625 6.49 -5 7 C-3.35 6.34 -1.7 5.68 0 5 C0 3.35 0 1.7 0 0 Z " fill="#C42428" transform="translate(93,29)"/>
<path d="M0 0 C0.66 0.66 1.32 1.32 2 2 C1.01 2.33 0.02 2.66 -1 3 C-1.99 4.485 -1.99 4.485 -3 6 C-8.75 4.125 -8.75 4.125 -11 3 C-11.33 3.99 -11.66 4.98 -12 6 C-12.66 5.67 -13.32 5.34 -14 5 C-13.01158836 2.3043319 -12.30627815 1.18376689 -9.8125 -0.3125 C-6.22641538 -1.18909846 -3.58163396 -0.81093599 0 0 Z " fill="#C83537" transform="translate(30,80)"/>
<path d="M0 0 C1.98 0.495 1.98 0.495 4 1 C3.125 4.875 3.125 4.875 2 6 C1.95226031 8.14530222 1.96304818 10.29198485 2 12.4375 C2.04856174 18.36810289 1.75857946 24.1210092 1 30 C0.67 30 0.34 30 0 30 C0 25.05 0 20.1 0 15 C-0.33 15 -0.66 15 -1 15 C-1.02715383 13.25008666 -1.04646551 11.50005055 -1.0625 9.75 C-1.07410156 8.77546875 -1.08570313 7.8009375 -1.09765625 6.796875 C-1.01195577 4.34241322 -0.70706066 2.33831086 0 0 Z M2 2 C3 4 3 4 3 4 Z " fill="#E47B7A" transform="translate(137,4)"/>
<path d="M0 0 C3.3 0.66 6.6 1.32 10 2 C8.02 2.99 8.02 2.99 6 4 C5.41347656 4.66515625 4.82695313 5.3303125 4.22265625 6.015625 C1.25440831 8.66566006 -1.75618158 9.12601337 -5.5625 9.75 C-6.23474609 9.87503906 -6.90699219 10.00007812 -7.59960938 10.12890625 C-10.44106143 10.64245568 -13.1076163 11 -16 11 C-16 10.34 -16 9.68 -16 9 C-15.14535156 8.86722656 -14.29070313 8.73445312 -13.41015625 8.59765625 C-12.30542969 8.42105469 -11.20070313 8.24445313 -10.0625 8.0625 C-8.96035156 7.88847656 -7.85820313 7.71445313 -6.72265625 7.53515625 C-4.09573071 7.28154864 -4.09573071 7.28154864 -3 6 C-1.33382885 5.95936168 0.33388095 5.957279 2 6 C1.34 4.02 0.68 2.04 0 0 Z " fill="#C43E42" transform="translate(40,175)"/>
<path d="M0 0 C2 1.1875 2 1.1875 4 3 C4.25 5.6875 4.25 5.6875 4 8 C5.98 7.34 7.96 6.68 10 6 C10 6.99 10 7.98 10 9 C10.66 9.33 11.32 9.66 12 10 C11.67 10.66 11.34 11.32 11 12 C3.61538462 12.49230769 3.61538462 12.49230769 0.5 10 C0.005 9.34 -0.49 8.68 -1 8 C0.32 7.67 1.64 7.34 3 7 C1.68 5.02 0.36 3.04 -1 1 C-0.67 0.67 -0.34 0.34 0 0 Z " fill="#C00403" transform="translate(80,55)"/>
<path d="M0 0 C0.33 3.3 0.66 6.6 1 10 C-3 12 -3 12 -5.75 11.125 C-6.4925 10.75375 -7.235 10.3825 -8 10 C-6.68 9.67 -5.36 9.34 -4 9 C-4.66 6.69 -5.32 4.38 -6 2 C-2.25 0 -2.25 0 0 0 Z " fill="#C91F20" transform="translate(38,145)"/>
<path d="M0 0 C1 2 2 4 3 6 C2.38125 6.9075 1.7625 7.815 1.125 8.75 C-0.44389611 11.14948817 -1.80443821 13.40961612 -3 16 C-1.35 16.33 0.3 16.66 2 17 C2 19.64 2 22.28 2 25 C1.67 25 1.34 25 1 25 C1 22.69 1 20.38 1 18 C-0.98 18 -2.96 18 -5 18 C-4.34 14.7 -3.68 11.4 -3 8 C-2.01 8 -1.02 8 0 8 C-0.185625 7.236875 -0.37125 6.47375 -0.5625 5.6875 C-1 3 -1 3 0 0 Z " fill="#AC1215" transform="translate(58,109)"/>
<path d="M0 0 C-1.32 0.33 -2.64 0.66 -4 1 C-4 1.99 -4 2.98 -4 4 C-2.35 4 -0.7 4 1 4 C1.33 4.66 1.66 5.32 2 6 C-0.475 5.505 -0.475 5.505 -3 5 C-3 5.66 -3 6.32 -3 7 C-3.99 6.67 -4.98 6.34 -6 6 C-6.33 4.68 -6.66 3.36 -7 2 C-11.95 2 -16.9 2 -22 2 C-22 1.67 -22 1.34 -22 1 C-19.45947886 0.63491323 -16.9182372 0.28268543 -14.375 -0.0625 C-13.30572266 -0.2181543 -13.30572266 -0.2181543 -12.21484375 -0.37695312 C-7.89893076 -0.95108834 -4.30515309 -0.97103611 0 0 Z " fill="#D65D5E" transform="translate(43,122)"/>
<path d="M0 0 C1.5 1.125 1.5 1.125 3 3 C3.1875 6.1875 3.1875 6.1875 3 9 C3.66 9.33 4.32 9.66 5 10 C3.68 10 2.36 10 1 10 C1 9.34 1 8.68 1 8 C-0.65 8.33 -2.3 8.66 -4 9 C-3.6875 5.625 -3.6875 5.625 -3 2 C-2.01 1.34 -1.02 0.68 0 0 Z " fill="#BB0405" transform="translate(107,49)"/>
<path d="M0 0 C0 0.66 0 1.32 0 2 C1.32 2 2.64 2 4 2 C4 2.66 4 3.32 4 4 C2.71086513 4.67154933 1.41859796 5.33708859 0.125 6 C-0.59429687 6.37125 -1.31359375 6.7425 -2.0546875 7.125 C-4 8 -4 8 -6 8 C-6 7.34 -6 6.68 -6 6 C-6.66 5.67 -7.32 5.34 -8 5 C-7.25 3.0625 -7.25 3.0625 -6 1 C-3.86997684 0.20124132 -2.26695035 0 0 0 Z " fill="#C51111" transform="translate(108,57)"/>
<path d="M0 0 C1.3303125 0.37125 1.3303125 0.37125 2.6875 0.75 C2.6875 1.08 2.6875 1.41 2.6875 1.75 C1.718125 2.03875 0.74875 2.3275 -0.25 2.625 C-3.41914203 3.39214682 -3.41914203 3.39214682 -4.3125 5.75 C-4.9725 5.75 -5.6325 5.75 -6.3125 5.75 C-5.9825 6.3275 -5.6525 6.905 -5.3125 7.5 C-4.3125 9.75 -4.3125 9.75 -4.3125 13.75 C-3.6525 14.08 -2.9925 14.41 -2.3125 14.75 C-2.9725 15.41 -3.6325 16.07 -4.3125 16.75 C-9.31326982 7.75307929 -9.31326982 7.75307929 -8.3125 3.75 C-5.48965306 0.59505343 -4.28023189 -0.32303637 0 0 Z " fill="#CF6D6C" transform="translate(51.3125,40.25)"/>
<path d="M0 0 C0 1.98 0 3.96 0 6 C-0.66 6 -1.32 6 -2 6 C-1.67 6.99 -1.34 7.98 -1 9 C-4.99500618 7.6302836 -7.80009492 5.74277578 -11 3 C-9.68 3 -8.36 3 -7 3 C-6.67 3.33 -6.34 3.66 -6 4 C-6 3.01 -6 2.02 -6 1 C-3.92446352 0.4465236 -2.15634036 0 0 0 Z " fill="#C52626" transform="translate(188,137)"/>
<path d="M0 0 C0.33 0 0.66 0 1 0 C1.21358407 4.48526557 0.583679 7.80790854 -1 12 C-1.33 12.99 -1.66 13.98 -2 15 C-3.32 14.67 -4.64 14.34 -6 14 C-6.33 14.99 -6.66 15.98 -7 17 C-8.32 16.67 -9.64 16.34 -11 16 C-11 15.34 -11 14.68 -11 14 C-9.63875 13.443125 -9.63875 13.443125 -8.25 12.875 C-4.46929674 10.69382504 -3.05936536 8.81363955 -1 5 C-0.21784412 2.2717496 -0.21784412 2.2717496 0 0 Z " fill="#C1282B" transform="translate(80,84)"/>
<path d="M0 0 C-0.639375 0.2475 -1.27875 0.495 -1.9375 0.75 C-4.19895007 1.79688294 -4.19895007 1.79688294 -4.5625 4.0625 C-4.706875 4.701875 -4.85125 5.34125 -5 6 C-5.99 6.33 -6.98 6.66 -8 7 C-8 7.99 -8 8.98 -8 10 C-8.99 10 -9.98 10 -11 10 C-11 7.36 -11 4.72 -11 2 C-7.17010894 0.19769832 -4.21878192 -0.19622241 0 0 Z " fill="#C60101" transform="translate(14,129)"/>
<path d="M0 0 C1.4375 2.25 1.4375 2.25 1.4375 4.25 C0.7775 4.25 0.1175 4.25 -0.5625 4.25 C-0.5625 3.59 -0.5625 2.93 -0.5625 2.25 C-3.5325 2.25 -6.5025 2.25 -9.5625 2.25 C-9.2325 4.56 -8.9025 6.87 -8.5625 9.25 C-10.65999995 6.89031256 -11.53155704 5.70383006 -11.75 2.5 C-11.688125 1.7575 -11.62625 1.015 -11.5625 0.25 C-3.40936 -2.32834342 -3.40936 -2.32834342 0 0 Z " fill="#C1474B" transform="translate(105.5625,10.75)"/>
<path d="M0 0 C0.99 0 1.98 0 3 0 C3 0.66 3 1.32 3 2 C7.95 1.67 12.9 1.34 18 1 C18.33 1.99 18.66 2.98 19 4 C13.06 4 7.12 4 1 4 C0.67 2.68 0.34 1.36 0 0 Z " fill="#D05759" transform="translate(87,101)"/>
<path d="M0 0 C2.475 0.495 2.475 0.495 5 1 C5 1.66 5 2.32 5 3 C5.556875 3.20625 6.11375 3.4125 6.6875 3.625 C9.92501302 5.55000774 11.68231141 8.03850902 14 11 C13.154375 10.690625 12.30875 10.38125 11.4375 10.0625 C7.9502146 8.98461179 4.61822465 8.43418696 1 8 C2.32 7.34 3.64 6.68 5 6 C3.35 4.02 1.7 2.04 0 0 Z " fill="#DC6767" transform="translate(40,82)"/>
<path d="M0 0 C0.66 1.32 1.32 2.64 2 4 C1.67 4.33 1.34 4.66 1 5 C3.31 5.33 5.62 5.66 8 6 C8 6.33 8 6.66 8 7 C6.02 7.33 4.04 7.66 2 8 C1.67 9.32 1.34 10.64 1 12 C2.98 12 4.96 12 7 12 C6.01 13.32 5.02 14.64 4 16 C2.125 15.5 2.125 15.5 0 14 C-2.00205253 8.53985674 -2.45590894 5.45757542 0 0 Z " fill="#D75353" transform="translate(159,28)"/>
<path d="M0 0 C0.99 0.66 1.98 1.32 3 2 C6.12521833 2.16699232 6.12521833 2.16699232 9 2 C9.33 2.66 9.66 3.32 10 4 C5.8803623 5.29243536 2.33168317 6.26252625 -2 6 C-2.66 4.35 -3.32 2.7 -4 1 C-2.68 1.33 -1.36 1.66 0 2 C0 1.34 0 0.68 0 0 Z " fill="#C63C3C" transform="translate(115,50)"/>
<path d="M0 0 C0.4125 0.474375 0.825 0.94875 1.25 1.4375 C3.182185 3.16266518 4.48192275 3.56584875 7 4 C6.67 5.65 6.34 7.3 6 9 C3.36 8.67 0.72 8.34 -2 8 C-0.68 7.34 0.64 6.68 2 6 C0.35 4.35 -1.3 2.7 -3 1 C-2.01 0.67 -1.02 0.34 0 0 Z " fill="#C20201" transform="translate(23,141)"/>
<path d="M0 0 C5.09210286 3.56320845 9.22660027 7.04741286 13 12 C12.01 12.495 12.01 12.495 11 13 C10.67 12.34 10.34 11.68 10 11 C7.98330173 9.86649466 7.98330173 9.86649466 6 9 C6 8.34 6 7.68 6 7 C4.68 7 3.36 7 2 7 C1.34 4.69 0.68 2.38 0 0 Z " fill="#C94B4D" transform="translate(57,44)"/>
<path d="M0 0 C4.0127492 1.33758307 4.93385112 3.33537274 7.05859375 6.85546875 C8.37324977 9.85026607 7.99367701 11.94253228 7 15 C3.69383716 11.19791273 0 5.16418515 0 0 Z " fill="#D15C5D" transform="translate(104,36)"/>
<path d="M0 0 C0.33 0 0.66 0 1 0 C1.20625 1.27875 1.4125 2.5575 1.625 3.875 C2.09728242 6.08444727 2.09728242 6.08444727 3 8 C5.89190405 9.40844651 5.89190405 9.40844651 9 10 C10.875 11.5 10.875 11.5 12 13 C12 13.66 12 14.32 12 15 C7.9642154 13.77987907 4.44593665 12.46138332 1 10 C-0.1577506 6.52674819 -0.06866652 3.63932552 0 0 Z " fill="#CC6465" transform="translate(1,131)"/>
<path d="M0 0 C1.65 0 3.3 0 5 0 C5.41713515 1.43146378 5.8080497 2.87058886 6.1875 4.3125 C6.40792969 5.11300781 6.62835938 5.91351563 6.85546875 6.73828125 C7 9 7 9 5.55078125 10.79296875 C5.03902344 11.19128906 4.52726562 11.58960938 4 12 C3.3291288 10.3767313 2.66342971 8.75132422 2 7.125 C1.62875 6.22007813 1.2575 5.31515625 0.875 4.3828125 C0 2 0 2 0 0 Z " fill="#D15A57" transform="translate(85,38)"/>
<path d="M0 0 C2.31 0 4.62 0 7 0 C6.67 1.65 6.34 3.3 6 5 C8.31 5.33 10.62 5.66 13 6 C13 6.33 13 6.66 13 7 C10.03 7 7.06 7 4 7 C3.67 6.34 3.34 5.68 3 5 C2.01 5.495 2.01 5.495 1 6 C0.67 4.02 0.34 2.04 0 0 Z " fill="#CE3C3D" transform="translate(36,128)"/>
<path d="M0 0 C1.2065625 0.0309375 1.2065625 0.0309375 2.4375 0.0625 C0.94881293 4.66389641 -1.30879855 7.56477094 -4.5625 11.0625 C-5.2225 11.0625 -5.8825 11.0625 -6.5625 11.0625 C-6.5625 9.4125 -6.5625 7.7625 -6.5625 6.0625 C-4.9125 6.0625 -3.2625 6.0625 -1.5625 6.0625 C-1.5625 4.7425 -1.5625 3.4225 -1.5625 2.0625 C-2.2225 1.7325 -2.8825 1.4025 -3.5625 1.0625 C-2.5625 0.0625 -2.5625 0.0625 0 0 Z " fill="#C33136" transform="translate(157.5625,90.9375)"/>
<path d="M0 0 C0.625 2.0625 0.625 2.0625 1 4 C0.01 4.66 -0.98 5.32 -2 6 C-2.66 6.66 -3.32 7.32 -4 8 C-4.66 7.67 -5.32 7.34 -6 7 C-6.40729228 4.67843403 -6.74438677 2.3431213 -7 0 C-2.25 -1.125 -2.25 -1.125 0 0 Z " fill="#C00304" transform="translate(103,13)"/>
<path d="M0 0 C0.33 0 0.66 0 1 0 C2.125 7.625 2.125 7.625 1 11 C-0.65 11.33 -2.3 11.66 -4 12 C-4.66 10.68 -5.32 9.36 -6 8 C-5.34 8 -4.68 8 -4 8 C-3.01 7.67 -2.02 7.34 -1 7 C-1.020625 6.030625 -1.04125 5.06125 -1.0625 4.0625 C-1 1 -1 1 0 0 Z " fill="#BC1719" transform="translate(30,133)"/>
<path d="M0 0 C0 3.86695678 -1.41909971 6.5088452 -3 10 C-9.625 10.125 -9.625 10.125 -13 9 C-13 8.34 -13 7.68 -13 7 C-10.36 7.33 -7.72 7.66 -5 8 C-4.9175 7.4225 -4.835 6.845 -4.75 6.25 C-3.79468987 3.3840696 -2.21530827 2.0009236 0 0 Z " fill="#C6484A" transform="translate(99,63)"/>
<path d="M0 0 C0 0.99 0 1.98 0 3 C-0.66 3 -1.32 3 -2 3 C-2 3.66 -2 4.32 -2 5 C-1.34 5 -0.68 5 0 5 C0 5.66 0 6.32 0 7 C-1.32 7 -2.64 7 -4 7 C-3.67 7.66 -3.34 8.32 -3 9 C-3.66 9.66 -4.32 10.32 -5 11 C-5.66 8.69 -6.32 6.38 -7 4 C-6.01 3.67 -5.02 3.34 -4 3 C-4.66 2.34 -5.32 1.68 -6 1 C-4.02 0.67 -2.04 0.34 0 0 Z " fill="#D43838" transform="translate(104,16)"/>
<path d="M0 0 C2.31 1.98 4.62 3.96 7 6 C5.8141763 9.37503669 4.72426311 11.64722731 2 14 C2 12.68 2 11.36 2 10 C2.66 10 3.32 10 4 10 C4 8.68 4 7.36 4 6 C3.01 6 2.02 6 1 6 C0.67 4.02 0.34 2.04 0 0 Z " fill="#CB5556" transform="translate(59,83)"/>
<path d="M0 0 C1.65 0.33 3.3 0.66 5 1 C4.67 2.65 4.34 4.3 4 6 C2.35 6 0.7 6 -1 6 C-1.33 5.01 -1.66 4.02 -2 3 C-1.34 2.01 -0.68 1.02 0 0 Z " fill="#BE4C4D" transform="translate(132,79)"/>
<path d="M0 0 C2.7330836 2.36039038 4.00684499 4.52395748 5 8 C4.625 10.8125 4.625 10.8125 4 13 C3.34 13 2.68 13 2 13 C2 10.69 2 8.38 2 6 C1.01 7.485 1.01 7.485 0 9 C-0.99 7.68 -1.98 6.36 -3 5 C-1.68 5 -0.36 5 1 5 C0.67 3.35 0.34 1.7 0 0 Z " fill="#D86A67" transform="translate(95,32)"/>
<path d="M0 0 C0.99 0.33 1.98 0.66 3 1 C2.34 4.3 1.68 7.6 1 11 C-1.64 11 -4.28 11 -7 11 C-7 10.67 -7 10.34 -7 10 C-5.02 9.67 -3.04 9.34 -1 9 C-0.67 6.03 -0.34 3.06 0 0 Z " fill="#DC7E7F" transform="translate(176,25)"/>
<path d="M0 0 C1.17755859 -0.02126953 1.17755859 -0.02126953 2.37890625 -0.04296875 C4.4375 0.1875 4.4375 0.1875 6.4375 2.1875 C5.90125 2.31125 5.365 2.435 4.8125 2.5625 C1.9736714 3.30956016 -0.78473202 4.24053364 -3.5625 5.1875 C-3.5625 4.1975 -3.5625 3.2075 -3.5625 2.1875 C-5.2125 2.5175 -6.8625 2.8475 -8.5625 3.1875 C-6.79918655 -0.33912691 -3.55147034 0.02925429 0 0 Z " fill="#CC504E" transform="translate(79.5625,19.8125)"/>
<path d="M0 0 C0.474375 0.66 0.94875 1.32 1.4375 2 C2.2109375 2.99 2.2109375 2.99 3 4 C3.33 4 3.66 4 4 4 C4.33 5.32 4.66 6.64 5 8 C2.03 7.67 -0.94 7.34 -4 7 C-3.67 6.34 -3.34 5.68 -3 5 C-2.34 5 -1.68 5 -1 5 C-1.33 3.68 -1.66 2.36 -2 1 C-1.34 0.67 -0.68 0.34 0 0 Z " fill="#BA0606" transform="translate(41,150)"/>
<path d="M0 0 C2 0.25 2 0.25 4 1 C4.33 1.99 4.66 2.98 5 4 C4.01 4.99 3.02 5.98 2 7 C0.68 6.34 -0.64 5.68 -2 5 C-1.125 1.125 -1.125 1.125 0 0 Z " fill="#C24F4F" transform="translate(118,71)"/>
<path d="M0 0 C0.59425781 0.20882812 1.18851563 0.41765625 1.80078125 0.6328125 C0.53191161 1.76002686 -0.73939437 2.88449908 -2.01171875 4.0078125 C-2.71941406 4.63429688 -3.42710938 5.26078125 -4.15625 5.90625 C-6.19921875 7.6328125 -6.19921875 7.6328125 -9.19921875 9.6328125 C-8.99000232 5.97152498 -8.05063524 4.15332431 -5.38671875 1.7578125 C-2.19921875 -0.3671875 -2.19921875 -0.3671875 0 0 Z " fill="#DA8C8A" transform="translate(34.19921875,58.3671875)"/>
<path d="M0 0 C0.38063221 2.3260857 0.71269945 4.66055264 1 7 C0 8 0 8 -3.0625 8.0625 C-4.031875 8.041875 -5.00125 8.02125 -6 8 C-6.33 6.35 -6.66 4.7 -7 3 C-6.34 3 -5.68 3 -5 3 C-5 2.34 -5 1.68 -5 1 C-3 0 -3 0 0 0 Z M-3 2 C-3.66 3.32 -4.32 4.64 -5 6 C-2.525 6.495 -2.525 6.495 0 7 C-0.33 5.35 -0.66 3.7 -1 2 C-1.66 2 -2.32 2 -3 2 Z " fill="#CC4F52" transform="translate(150,149)"/>
<path d="M0 0 C1.32 0.33 2.64 0.66 4 1 C4.5625 2.9375 4.5625 2.9375 5 5 C4 6 4 6 1.4375 6.0625 C0.2309375 6.0315625 0.2309375 6.0315625 -1 6 C-1.33 5.01 -1.66 4.02 -2 3 C-1.34 2.01 -0.68 1.02 0 0 Z " fill="#C14A49" transform="translate(133,69)"/>
<path d="M0 0 C0.99 0 1.98 0 3 0 C2.98839844 0.73605469 2.97679688 1.47210938 2.96484375 2.23046875 C2.95582031 3.20628906 2.94679688 4.18210937 2.9375 5.1875 C2.92589844 6.15042969 2.91429688 7.11335938 2.90234375 8.10546875 C2.99513378 10.85576513 3.37888315 13.32479591 4 16 C3.34 15.67 2.68 15.34 2 15 C2 14.01 2 13.02 2 12 C1.34 12 0.68 12 0 12 C0 8.04 0 4.08 0 0 Z " fill="#C6494D" transform="translate(109,70)"/>
<path d="M0 0 C1.65 0.33 3.3 0.66 5 1 C4.67 2.65 4.34 4.3 4 6 C2.35 5.67 0.7 5.34 -1 5 C-0.67 3.35 -0.34 1.7 0 0 Z " fill="#C1494A" transform="translate(124,64)"/>
<path d="M0 0 C0.66 0.66 1.32 1.32 2 2 C1.01 4.97 0.02 7.94 -1 11 C-1.66 10.67 -2.32 10.34 -3 10 C-3 7.03 -3 4.06 -3 1 C-2.01 0.67 -1.02 0.34 0 0 Z " fill="#C50A0B" transform="translate(157,28)"/>
<path d="M0 0 C0 0.33 0 0.66 0 1 C-1.65 1.33 -3.3 1.66 -5 2 C-5.33 2.99 -5.66 3.98 -6 5 C-3.03 5.33 -0.06 5.66 3 6 C3 6.33 3 6.66 3 7 C-0.96 7 -4.92 7 -9 7 C-8.625 4.0625 -8.625 4.0625 -8 1 C-5.29120665 -0.35439668 -2.99066732 -0.06501451 0 0 Z " fill="#D96969" transform="translate(170,18)"/>
<path d="M0 0 C3.16115776 1.36983503 3.9927092 1.9890638 6 5 C6 5.99 6 6.98 6 8 C5.01 8.33 4.02 8.66 3 9 C2.34 8.67 1.68 8.34 1 8 C0.40644386 5.35139573 0.25790731 2.70802678 0 0 Z " fill="#C63B3F" transform="translate(32,82)"/>
<path d="M0 0 C1.65 0 3.3 0 5 0 C5 1.65 5 3.3 5 5 C3.125 5.625 3.125 5.625 1 6 C0.34 5.34 -0.32 4.68 -1 4 C-0.625 1.875 -0.625 1.875 0 0 Z " fill="#BD4244" transform="translate(121,81)"/>
<path d="M0 0 C1.4606285 2.64738916 2 3.89448334 2 7 C-1 9 -1 9 -3 9 C-3 8.34 -3 7.68 -3 7 C-3.66 6.67 -4.32 6.34 -5 6 C-4.67 5.34 -4.34 4.68 -4 4 C-3.34 4 -2.68 4 -2 4 C-2 3.34 -2 2.68 -2 2 C-1.34 2 -0.68 2 0 2 C0 1.34 0 0.68 0 0 Z " fill="#D52A2A" transform="translate(145,31)"/>
<path d="M0 0 C12.66970387 0.96355353 12.66970387 0.96355353 18 2 C18 2.33 18 2.66 18 3 C15.94099907 3.27734712 13.87741707 3.52081942 11.8125 3.75 C10.08966797 3.95882813 10.08966797 3.95882813 8.33203125 4.171875 C4.28655817 3.96319878 2.85526838 2.77461108 0 0 Z " fill="#CD5C5C" transform="translate(166,6)"/>
<path d="M0 0 C0.33 0 0.66 0 1 0 C1.28571429 8.57142857 1.28571429 8.57142857 -1 12 C-1.66 12 -2.32 12 -3 12 C-3 12.66 -3 13.32 -3 14 C-4.32 13.67 -5.64 13.34 -7 13 C-6.21625 12.154375 -5.4325 11.30875 -4.625 10.4375 C-1.83068977 7.12074083 -0.92487099 4.20395906 0 0 Z " fill="#CD5E5E" transform="translate(144,77)"/>
<path d="M0 0 C0 1.98 0 3.96 0 6 C-0.99 5.34 -1.98 4.68 -3 4 C-3.99 4.33 -4.98 4.66 -6 5 C-6.33 3.68 -6.66 2.36 -7 1 C-3.375 -1.125 -3.375 -1.125 0 0 Z " fill="#CC4749" transform="translate(72,69)"/>
<path d="M0 0 C2.66666667 1.33333333 5.33333333 2.66666667 8 4 C8 4.66 8 5.32 8 6 C7.01 6.33 6.02 6.66 5 7 C5 7.99 5 8.98 5 10 C4.34 9.34 3.68 8.68 3 8 C3 7.01 3 6.02 3 5 C2.34 5 1.68 5 1 5 C0.67 3.35 0.34 1.7 0 0 Z " fill="#D21817" transform="translate(75,56)"/>
<path d="M0 0 C0.99 0.33 1.98 0.66 3 1 C2.67 2.98 2.34 4.96 2 7 C-2.455 6.01 -2.455 6.01 -7 5 C-4.38058783 3.25372522 -2.96175123 2.61277612 0 2 C0 1.34 0 0.68 0 0 Z " fill="#CB3434" transform="translate(135,55)"/>
<path d="M0 0 C0.99 0.33 1.98 0.66 3 1 C3 3.64 3 6.28 3 9 C2.34 9 1.68 9 1 9 C0.67 7.68 0.34 6.36 0 5 C-0.99 5.495 -0.99 5.495 -2 6 C-2 4.35 -2 2.7 -2 1 C-1.34 0.67 -0.68 0.34 0 0 Z " fill="#B23537" transform="translate(130,42)"/>
<path d="M0 0 C1.81293089 0.14037521 3.6253443 0.28744889 5.4375 0.4375 C6.95150391 0.55931641 6.95150391 0.55931641 8.49609375 0.68359375 C11 1 11 1 12 2 C12.04092937 4.33297433 12.04241723 6.66705225 12 9 C11.67 9 11.34 9 11 9 C10.67 7.35 10.34 5.7 10 4 C6.7 3.34 3.4 2.68 0 2 C0 1.34 0 0.68 0 0 Z " fill="#C45251" transform="translate(166,41)"/>
<path d="M0 0 C0.33 0 0.66 0 1 0 C1.22384382 1.72722728 1.42839969 3.45696007 1.625 5.1875 C1.74101562 6.15042969 1.85703125 7.11335938 1.9765625 8.10546875 C2.00194942 11.24075323 1.34359283 13.19486535 0 16 C-0.66 15.67 -1.32 15.34 -2 15 C-2.625 12.4375 -2.625 12.4375 -3 10 C-2.34 9.67 -1.68 9.34 -1 9 C-0.53348793 6.87423218 -0.53348793 6.87423218 -0.375 4.4375 C-0.30023437 3.61121094 -0.22546875 2.78492187 -0.1484375 1.93359375 C-0.09945313 1.29550781 -0.05046875 0.65742187 0 0 Z " fill="#B50709" transform="translate(29,95)"/>
<path d="M0 0 C1.43655854 -0.08131463 2.8744483 -0.13933559 4.3125 -0.1875 C5.51326172 -0.23970703 5.51326172 -0.23970703 6.73828125 -0.29296875 C9.47851584 0.06198392 10.29171079 0.89366282 12 3 C9.16032769 3 6.76264289 2.59732819 4 2 C2.515 4.475 2.515 4.475 1 7 C0.31292445 4.50935112 0 2.62113708 0 0 Z " fill="#C84D4C" transform="translate(90,94)"/>
<path d="M0 0 C0.66 0 1.32 0 2 0 C2.33 2.31 2.66 4.62 3 7 C1.35 7.66 -0.3 8.32 -2 9 C-2.66 8.34 -3.32 7.68 -4 7 C-3.67 6.01 -3.34 5.02 -3 4 C-1.68 4 -0.36 4 1 4 C0.67 2.68 0.34 1.36 0 0 Z " fill="#CA2627" transform="translate(93,58)"/>
<path d="M0 0 C2 3 2 3 1.6875 6.125 C1 9 1 9 0 10 C-1.66617115 10.04063832 -3.33388095 10.042721 -5 10 C-3.68 9.67 -2.36 9.34 -1 9 C-1.66 7.35 -2.32 5.7 -3 4 C-2.34 3.67 -1.68 3.34 -1 3 C-0.67 2.01 -0.34 1.02 0 0 Z " fill="#D36462" transform="translate(68,74)"/>
<path d="M0 0 C1.99788438 0.34578768 3.99759451 0.68143549 6 1 C6 1.33 6 1.66 6 2 C1.545 2.495 1.545 2.495 -3 3 C-3 2.34 -3 1.68 -3 1 C-5.31 1 -7.62 1 -10 1 C-10 0.67 -10 0.34 -10 0 C-6.26677379 -0.76361445 -3.63529037 -1.13602824 0 0 Z " fill="#CB6964" transform="translate(59,173)"/>
<path d="M0 0 C3.3 0 6.6 0 10 0 C10 0.66 10 1.32 10 2 C6.04 2.66 2.08 3.32 -2 4 C-2 3.34 -2 2.68 -2 2 C-1.34 2 -0.68 2 0 2 C0 1.34 0 0.68 0 0 Z " fill="#D4484B" transform="translate(19,134)"/>
<path d="M0 0 C0.66 0 1.32 0 2 0 C1.36843005 5.05255964 -0.13459373 9.29593201 -2 14 C-2.33 14 -2.66 14 -3 14 C-3.08004482 10.4780279 -3.04005702 7.38018531 -2 4 C-1.34 4 -0.68 4 0 4 C0 2.68 0 1.36 0 0 Z " fill="#C84C4A" transform="translate(53,111)"/>
<path d="M0 0 C2.31 0 4.62 0 7 0 C7 0.33 7 0.66 7 1 C5.35 1 3.7 1 2 1 C2 1.99 2 2.98 2 4 C1.34 4 0.68 4 0 4 C0 5.65 0 7.3 0 9 C-0.99 9.495 -0.99 9.495 -2 10 C-2 7.36 -2 4.72 -2 2 C-1.34 2 -0.68 2 0 2 C0 1.34 0 0.68 0 0 Z " fill="#C65F5E" transform="translate(61,99)"/>
<path d="M0 0 C0.99 0.33 1.98 0.66 3 1 C3 1.66 3 2.32 3 3 C-2.34629602 4.0024305 -6.62374766 3.84888195 -12 3 C-12 2.67 -12 2.34 -12 2 C-10.95199219 1.90912109 -10.95199219 1.90912109 -9.8828125 1.81640625 C-8.97273438 1.73261719 -8.06265625 1.64882812 -7.125 1.5625 C-6.22007812 1.48128906 -5.31515625 1.40007812 -4.3828125 1.31640625 C-1.98889139 1.13010715 -1.98889139 1.13010715 0 0 Z " fill="#CE4E4F" transform="translate(135,91)"/>
<path d="M0 0 C0.33 0 0.66 0 1 0 C1.05380578 2.79192205 1.09357669 5.5828141 1.125 8.375 C1.14175781 9.1690625 1.15851563 9.963125 1.17578125 10.78125 C1.19335473 12.85492015 1.10335168 14.92883241 1 17 C0.34 17.66 -0.32 18.32 -1 19 C-1.93423645 15.98968256 -2.04449911 15.13349732 -1 12 C-0.77674186 9.94106379 -0.59294241 7.87766347 -0.4375 5.8125 C-0.35371094 4.72582031 -0.26992187 3.63914062 -0.18359375 2.51953125 C-0.12300781 1.68808594 -0.06242187 0.85664063 0 0 Z " fill="#DB6C6E" transform="translate(116,15)"/>
<path d="M0 0 C2.88437779 1.29299694 4.87219421 2.65941363 7 5 C6.67 5.99 6.34 6.98 6 8 C5.67 7.34 5.34 6.68 5 6 C3.35 6 1.7 6 0 6 C0 4 0 2 0 0 Z " fill="#C64445" transform="translate(86,22)"/>
<path d="M0 0 C4.95 0 9.9 0 15 0 C15.66 1.32 16.32 2.64 17 4 C16.01 4.495 16.01 4.495 15 5 C14.67 4.34 14.34 3.68 14 3 C10.99221479 1.99740493 8.46179353 1.69685358 5.3125 1.4375 C4.31863281 1.35371094 3.32476562 1.26992188 2.30078125 1.18359375 C1.16189453 1.09271484 1.16189453 1.09271484 0 1 C0 0.67 0 0.34 0 0 Z " fill="#D5767A" transform="translate(139,53)"/>
<path d="M0 0 C3.96 0 7.92 0 12 0 C11.67 0.99 11.34 1.98 11 3 C6.72213252 2.50639991 3.90432869 1.95216435 0 0 Z " fill="#C03334" transform="translate(44,174)"/>
<path d="M0 0 C2.64 0.66 5.28 1.32 8 2 C7.34 2.66 6.68 3.32 6 4 C6.66 4.66 7.32 5.32 8 6 C4.51460083 5.35455571 1.97180943 3.89865603 -1 2 C-0.67 1.34 -0.34 0.68 0 0 Z " fill="#DB6B70" transform="translate(21,137)"/>
<path d="M0 0 C-0.33 0.66 -0.66 1.32 -1 2 C-2.65 1.67 -4.3 1.34 -6 1 C-5.67 1.66 -5.34 2.32 -5 3 C-6.98 2.34 -8.96 1.68 -11 1 C-7.23664609 -2.76335391 -4.62553969 -2.18428263 0 0 Z " fill="#D92B2C" transform="translate(49,115)"/>
<path d="M0 0 C0.33 0.66 0.66 1.32 1 2 C2.98 1.67 4.96 1.34 7 1 C6.67 1.99 6.34 2.98 6 4 C7.32 3.67 8.64 3.34 10 3 C10 3.66 10 4.32 10 5 C7.36 5 4.72 5 2 5 C2 4.34 2 3.68 2 3 C1.34 3 0.68 3 0 3 C0 2.01 0 1.02 0 0 Z " fill="#D12021" transform="translate(148,44)"/>
<path d="M0 0 C0.66 0 1.32 0 2 0 C1.67 3.3 1.34 6.6 1 10 C0.34 10 -0.32 10 -1 10 C-1.33 10.66 -1.66 11.32 -2 12 C-1 3.42857143 -1 3.42857143 0 0 Z " fill="#CA4D4B" transform="translate(150,23)"/>
<path d="M0 0 C-0.598125 0.268125 -1.19625 0.53625 -1.8125 0.8125 C-4.04254963 1.87102051 -4.04254963 1.87102051 -5.5 3.625 C-7 5 -7 5 -11 5 C-11 4.01 -11 3.02 -11 2 C-7.17010894 0.19769832 -4.21878192 -0.19622241 0 0 Z " fill="#CF1012" transform="translate(14,129)"/>
<path d="M0 0 C0 1.32 0 2.64 0 4 C-1.32 4.33 -2.64 4.66 -4 5 C-4 6.65 -4 8.3 -4 10 C-4.33 10 -4.66 10 -5 10 C-5.3669579 3.51707705 -5.3669579 3.51707705 -3.625 1.0625 C-2 0 -2 0 0 0 Z " fill="#B92E2F" transform="translate(7,126)"/>
<path d="M0 0 C1.65 0 3.3 0 5 0 C4.67 1.65 4.34 3.3 4 5 C2.68 4.67 1.36 4.34 0 4 C0 2.68 0 1.36 0 0 Z " fill="#C25F5F" transform="translate(68,88)"/>
<path d="M0 0 C0.66 0.33 1.32 0.66 2 1 C2 1.66 2 2.32 2 3 C4.475 3.99 4.475 3.99 7 5 C6.01 5.33 5.02 5.66 4 6 C3.34 6.66 2.68 7.32 2 8 C1.67 7.34 1.34 6.68 1 6 C0.34 6 -0.32 6 -1 6 C-1.042721 4.33388095 -1.04063832 2.66617115 -1 1 C-0.67 0.67 -0.34 0.34 0 0 Z " fill="#D43638" transform="translate(21,89)"/>
<path d="M0 0 C-1.98 0.99 -1.98 0.99 -4 2 C-4.33 1.67 -4.66 1.34 -5 1 C-5.928125 1.495 -5.928125 1.495 -6.875 2 C-9 3 -9 3 -11 3 C-11 2.01 -11 1.02 -11 0 C-7.18243176 -1.37432457 -3.92744671 -0.67975039 0 0 Z " fill="#B80607" transform="translate(168,7)"/>
<path d="M0 0 C2.97 0.33 5.94 0.66 9 1 C5.23312136 2.88343932 3.97041037 3.22057835 0 3 C-0.33 4.32 -0.66 5.64 -1 7 C-1.33 6.34 -1.66 5.68 -2 5 C-1.0625 2.375 -1.0625 2.375 0 0 Z " fill="#CC7173" transform="translate(156,4)"/>
<path d="M0 0 C3.125 -0.1875 3.125 -0.1875 6 0 C6 0.99 6 1.98 6 3 C3.36 3 0.72 3 -2 3 C-1.34 2.01 -0.68 1.02 0 0 Z " fill="#B32D2D" transform="translate(60,171)"/>
<path d="M0 0 C0.66 0 1.32 0 2 0 C2 0.99 2 1.98 2 3 C2.66 3 3.32 3 4 3 C4 3.66 4 4.32 4 5 C3.34 5 2.68 5 2 5 C2.33 5.99 2.66 6.98 3 8 C2.01 7.67 1.02 7.34 0 7 C-0.38133299 5.0085944 -0.71325582 3.00720923 -1 1 C-0.67 0.67 -0.34 0.34 0 0 Z " fill="#CA0709" transform="translate(34,110)"/>
<path d="M0 0 C1.5 1.375 1.5 1.375 3 3 C3 3.66 3 4.32 3 5 C2.21625 4.938125 1.4325 4.87625 0.625 4.8125 C-0.674375 4.9053125 -0.674375 4.9053125 -2 5 C-2.66 5.99 -3.32 6.98 -4 8 C-3.6875 5.125 -3.6875 5.125 -3 2 C-2.01 1.34 -1.02 0.68 0 0 Z " fill="#CA5F5F" transform="translate(107,49)"/>
<path d="M0 0 C2 1 4 2 6 3 C6 2.34 6 1.68 6 1 C6.99 1.33 7.98 1.66 9 2 C7.3125 3.5625 7.3125 3.5625 5 5 C2.25 4.6875 2.25 4.6875 0 4 C0 2.68 0 1.36 0 0 Z " fill="#BC0402" transform="translate(137,41)"/>
<path d="M0 0 C0.66 0.33 1.32 0.66 2 1 C2 1.99 2 2.98 2 4 C2.66 4.33 3.32 4.66 4 5 C2.02 5.66 0.04 6.32 -2 7 C-2 3 -2 3 0 0 Z " fill="#C4433F" transform="translate(69,23)"/>
<path d="M0 0 C1.98 0 3.96 0 6 0 C6 0.66 6 1.32 6 2 C6.99 2.99 7.98 3.98 9 5 C6.03 4.01 3.06 3.02 0 2 C0 1.34 0 0.68 0 0 Z " fill="#C74946" transform="translate(21,149)"/>
<path d="M0 0 C0.8723412 2.99480917 1.10829766 5.63575911 1.0625 8.75 C1.05347656 9.54921875 1.04445313 10.3484375 1.03515625 11.171875 C1.01775391 12.07679687 1.01775391 12.07679687 1 13 C0.01 12.67 -0.98 12.34 -2 12 C-1.85831863 10.56208484 -1.71148957 9.1246763 -1.5625 7.6875 C-1.48128906 6.88699219 -1.40007813 6.08648437 -1.31640625 5.26171875 C-1 3 -1 3 0 0 Z " fill="#CC716F" transform="translate(11,95)"/>
<path d="M0 0 C0.99 0.33 1.98 0.66 3 1 C2.67 1.66 2.34 2.32 2 3 C1.34 3 0.68 3 0 3 C-0.33 3.99 -0.66 4.98 -1 6 C-1.99 6.495 -1.99 6.495 -3 7 C-3.33 5.68 -3.66 4.36 -4 3 C-3.34 3 -2.68 3 -2 3 C-1.67 2.34 -1.34 1.68 -1 1 C-0.67 0.67 -0.34 0.34 0 0 Z " fill="#D12325" transform="translate(64,67)"/>
<path d="M0 0 C1.65 0 3.3 0 5 0 C4.75 1.875 4.75 1.875 4 4 C1.9375 5.25 1.9375 5.25 0 6 C0 4.02 0 2.04 0 0 Z " fill="#BE2726" transform="translate(116,58)"/>
<path d="M0 0 C0.99 0 1.98 0 3 0 C3.33 1.98 3.66 3.96 4 6 C2.68 5.67 1.36 5.34 0 5 C0 3.35 0 1.7 0 0 Z " fill="#C6272B" transform="translate(13,142)"/>
<path d="M0 0 C1.65 0 3.3 0 5 0 C4.67 1.32 4.34 2.64 4 4 C2.35 4 0.7 4 -1 4 C-0.67 2.68 -0.34 1.36 0 0 Z " fill="#C10406" transform="translate(43,129)"/>
<path d="M0 0 C1 2 2 4 3 6 C2.01 7.485 2.01 7.485 1 9 C-0.32 8.67 -1.64 8.34 -3 8 C-2.01 8 -1.02 8 0 8 C-0.185625 7.236875 -0.37125 6.47375 -0.5625 5.6875 C-1 3 -1 3 0 0 Z " fill="#D45C5E" transform="translate(58,109)"/>
<path d="M0 0 C-0.375 1.9375 -0.375 1.9375 -1 4 C-1.99 4.495 -1.99 4.495 -3 5 C-4.32 3.68 -5.64 2.36 -7 1 C-4 0 -4 0 0 0 Z " fill="#C64546" transform="translate(79,74)"/>
<path d="M0 0 C0.1875 2.875 0.1875 2.875 0 6 C-0.99 6.66 -1.98 7.32 -3 8 C-3 5.69 -3 3.38 -3 1 C-1 0 -1 0 0 0 Z " fill="#BC3131" transform="translate(71,163)"/>
<path d="M0 0 C0.33 0 0.66 0 1 0 C1 2.97 1 5.94 1 9 C0.01 9.33 -0.98 9.66 -2 10 C-2.66 9.67 -3.32 9.34 -4 9 C-3.67 8.01 -3.34 7.02 -3 6 C-2.34 6.33 -1.68 6.66 -1 7 C-0.67 4.69 -0.34 2.38 0 0 Z " fill="#E98589" transform="translate(28,95)"/>
<path d="M0 0 C1.74627478 2.61941217 2.38722388 4.03824877 3 7 C2.01 7 1.02 7 0 7 C-0.66 5.02 -1.32 3.04 -2 1 C-1.34 0.67 -0.68 0.34 0 0 Z " fill="#C94342" transform="translate(69,47)"/>
<path d="M0 0 C0.33 0 0.66 0 1 0 C1 4.29 1 8.58 1 13 C0.01 13 -0.98 13 -2 13 C-1.34 8.71 -0.68 4.42 0 0 Z " fill="#B20F10" transform="translate(147,22)"/>
<path d="M0 0 C1.6875 2.1875 1.6875 2.1875 1.6875 4.1875 C1.0275 4.1875 0.3675 4.1875 -0.3125 4.1875 C-0.3125 3.5275 -0.3125 2.8675 -0.3125 2.1875 C-2.6225 1.5275 -4.9325 0.8675 -7.3125 0.1875 C-7.3125 -0.1425 -7.3125 -0.4725 -7.3125 -0.8125 C-3.91460918 -1.94513027 -2.90750063 -2.27885184 0 0 Z " fill="#CD5F64" transform="translate(105.3125,10.8125)"/>
<path d="M0 0 C1.98 0 3.96 0 6 0 C4.71937515 1.7074998 3.38232443 3.37373596 2 5 C1.34 5 0.68 5 0 5 C0 3.35 0 1.7 0 0 Z " fill="#C8393C" transform="translate(151,97)"/>
<path d="M0 0 C0.99 0.33 1.98 0.66 3 1 C2.34 4.3 1.68 7.6 1 11 C0.67 11 0.34 11 0 11 C-0.19406478 9.35492782 -0.38007935 7.70890406 -0.5625 6.0625 C-0.66691406 5.14597656 -0.77132812 4.22945313 -0.87890625 3.28515625 C-0.91886719 2.53105469 -0.95882812 1.77695313 -1 1 C-0.67 0.67 -0.34 0.34 0 0 Z " fill="#C96C6A" transform="translate(79,78)"/>
<path d="M0 0 C-0.33 1.32 -0.66 2.64 -1 4 C-2.98 4 -4.96 4 -7 4 C-2.25 0 -2.25 0 0 0 Z " fill="#C63D41" transform="translate(185,103)"/>
<path d="M0 0 C0 2.83967231 -0.40267181 5.23735711 -1 8 C-1.99 7.34 -2.98 6.68 -4 6 C-2.84826645 3.53199953 -1.95216435 1.95216435 0 0 Z " fill="#BF292D" transform="translate(30,63)"/>
<path d="M0 0 C0.99 0 1.98 0 3 0 C3.33 1.65 3.66 3.3 4 5 C3.01 5.33 2.02 5.66 1 6 C0.67 4.02 0.34 2.04 0 0 Z " fill="#CB0102" transform="translate(49,50)"/>
<path d="M0 0 C0.66 0 1.32 0 2 0 C2.12375 0.969375 2.2475 1.93875 2.375 2.9375 C2.684375 4.4534375 2.684375 4.4534375 3 6 C3.66 6.33 4.32 6.66 5 7 C4.34 7.66 3.68 8.32 3 9 C0 3.375 0 3.375 0 0 Z " fill="#C64E51" transform="translate(44,48)"/>
<path d="M0 0 C1.32 0 2.64 0 4 0 C4 4 4 4 3 6 C2.34 5.67 1.68 5.34 1 5 C0.375 2.4375 0.375 2.4375 0 0 Z M1 6 C3 7 3 7 3 7 Z " fill="#CC0809" transform="translate(52,45)"/>
<path d="M0 0 C0.99 0.33 1.98 0.66 3 1 C2.67 2.65 2.34 4.3 2 6 C1.01 6 0.02 6 -1 6 C-0.67 4.02 -0.34 2.04 0 0 Z " fill="#D49FA0" transform="translate(71,79)"/>
<path d="M0 0 C1.7074998 1.28062485 3.37373596 2.61767557 5 4 C5 4.66 5 5.32 5 6 C4.01 6 3.02 6 2 6 C1.34 4.02 0.68 2.04 0 0 Z " fill="#D3999F" transform="translate(37,82)"/>
</svg>
